<svg xmlns="http://www.w3.org/2000/svg" viewBox="0 0 23.46 23.46">
  <defs>
    <style>
      .cls-1 {
        fill: #010101;
      }
    </style>
  </defs>
  <title>attendance</title>
  <g id="Layer_2" data-name="Layer 2">
    <g id="Layer_1-2" data-name="Layer 1">
      <g>
        <path class="cls-1" d="M2.35,16a1.57,1.57,0,1,0,1.56,1.56A1.56,1.56,0,0,0,2.35,16Zm0,2.35a.79.79,0,1,1,.78-.79A.79.79,0,0,1,2.35,18.38Z"/>
        <path class="cls-1" d="M2.35,19.55A2.35,2.35,0,0,0,0,21.9v1.17a.4.4,0,0,0,.39.39.39.39,0,0,0,.39-.39V21.9a1.57,1.57,0,1,1,3.13,0v1.17a.4.4,0,0,0,.39.39.39.39,0,0,0,.39-.39V21.9A2.35,2.35,0,0,0,2.35,19.55Z"/>
        <path class="cls-1" d="M8.6,16a1.57,1.57,0,1,0,1.57,1.56A1.56,1.56,0,0,0,8.6,16Zm0,2.35a.79.79,0,1,1,.78-.79A.78.78,0,0,1,8.6,18.38Z"/>
        <path class="cls-1" d="M8.6,19.55A2.35,2.35,0,0,0,6.26,21.9v1.17a.39.39,0,0,0,.39.39A.4.4,0,0,0,7,23.07V21.9a1.57,1.57,0,1,1,3.13,0v1.17a.39.39,0,0,0,.39.39.4.4,0,0,0,.39-.39V21.9A2.35,2.35,0,0,0,8.6,19.55Z"/>
        <path class="cls-1" d="M14.86,16a1.57,1.57,0,1,0,1.56,1.56A1.56,1.56,0,0,0,14.86,16Zm0,2.35a.79.79,0,1,1,.78-.79A.78.78,0,0,1,14.86,18.38Z"/>
        <path class="cls-1" d="M14.86,19.55a2.35,2.35,0,0,0-2.35,2.35v1.17a.4.4,0,0,0,.39.39.39.39,0,0,0,.39-.39V21.9a1.57,1.57,0,1,1,3.13,0v1.17a.4.4,0,0,0,.39.39.39.39,0,0,0,.39-.39V21.9A2.35,2.35,0,0,0,14.86,19.55Z"/>
        <path class="cls-1" d="M21.11,16a1.57,1.57,0,1,0,1.57,1.56A1.56,1.56,0,0,0,21.11,16Zm0,2.35a.79.79,0,1,1,.79-.79A.78.78,0,0,1,21.11,18.38Z"/>
        <path class="cls-1" d="M21.11,19.55a2.35,2.35,0,0,0-2.34,2.35v1.17a.39.39,0,0,0,.39.39.4.4,0,0,0,.39-.39V21.9a1.57,1.57,0,1,1,3.13,0v1.17a.39.39,0,0,0,.39.39.4.4,0,0,0,.39-.39V21.9A2.35,2.35,0,0,0,21.11,19.55Z"/>
        <path class="cls-1" d="M2.35,8.6a1.57,1.57,0,1,0,1.56,1.57A1.57,1.57,0,0,0,2.35,8.6Zm0,2.35a.79.79,0,1,1,.78-.78A.78.78,0,0,1,2.35,11Z"/>
        <path class="cls-1" d="M2.35,12.12A2.35,2.35,0,0,0,0,14.47v1.17A.39.39,0,0,0,.39,16a.38.38,0,0,0,.39-.39V14.47a1.57,1.57,0,1,1,3.13,0v1.17A.39.39,0,0,0,4.3,16a.38.38,0,0,0,.39-.39V14.47A2.35,2.35,0,0,0,2.35,12.12Z"/>
        <path class="cls-1" d="M8.6,8.6a1.57,1.57,0,1,0,1.57,1.57A1.56,1.56,0,0,0,8.6,8.6ZM8.6,11a.79.79,0,1,1,.78-.78A.78.78,0,0,1,8.6,11Z"/>
        <path class="cls-1" d="M8.6,12.12a2.35,2.35,0,0,0-2.34,2.35v1.17a.38.38,0,0,0,.39.39A.39.39,0,0,0,7,15.64V14.47a1.57,1.57,0,1,1,3.13,0v1.17a.38.38,0,0,0,.39.39.39.39,0,0,0,.39-.39V14.47A2.35,2.35,0,0,0,8.6,12.12Z"/>
        <path class="cls-1" d="M14.86,8.6a1.57,1.57,0,1,0,1.56,1.57A1.57,1.57,0,0,0,14.86,8.6Zm0,2.35a.79.79,0,1,1,.78-.78A.78.78,0,0,1,14.86,11Z"/>
        <path class="cls-1" d="M14.86,12.12a2.35,2.35,0,0,0-2.35,2.35v1.17a.39.39,0,0,0,.39.39.38.38,0,0,0,.39-.39V14.47a1.57,1.57,0,1,1,3.13,0v1.17a.39.39,0,0,0,.39.39.38.38,0,0,0,.39-.39V14.47A2.35,2.35,0,0,0,14.86,12.12Z"/>
        <path class="cls-1" d="M21.11,8.6a1.57,1.57,0,1,0,1.57,1.57A1.56,1.56,0,0,0,21.11,8.6Zm0,2.35a.79.79,0,1,1,.79-.78A.78.78,0,0,1,21.11,11Z"/>
        <path class="cls-1" d="M21.11,12.12a2.35,2.35,0,0,0-2.34,2.35v1.17a.38.38,0,0,0,.39.39.39.39,0,0,0,.39-.39V14.47a1.57,1.57,0,1,1,3.13,0v1.17a.38.38,0,0,0,.39.39.39.39,0,0,0,.39-.39V14.47A2.35,2.35,0,0,0,21.11,12.12Z"/>
        <path class="cls-1" d="M19.94,0H3.52a.39.39,0,0,0-.39.39v7a.39.39,0,0,0,.39.39H19.94a.39.39,0,0,0,.39-.39v-7A.39.39,0,0,0,19.94,0Zm-.39,7H3.91V.78H19.55Z"/>
        <path class="cls-1" d="M15.64,2c-1.53,0-2.74.87-2.74,2s1.21,2,2.74,2S18.38,5,18.38,3.91,17.17,2,15.64,2Zm0,3.13c-1.06,0-2-.53-2-1.17s.69-1,1.57-1.15V3.91a.43.43,0,0,0,.11.28L16.2,5A3.43,3.43,0,0,1,15.64,5.08ZM17,4.73l-1-1v-1c.88.11,1.56.59,1.56,1.15A1,1,0,0,1,17,4.73Z"/>
        <path class="cls-1" d="M5.86,2H5.08a.4.4,0,0,0,0,.79h.78a.4.4,0,1,0,0-.79Z"/>
        <path class="cls-1" d="M11.34,2H7a.4.4,0,0,0,0,.79h4.3a.4.4,0,0,0,0-.79Z"/>
        <path class="cls-1" d="M9.38,3.52H5.08a.39.39,0,0,0,0,.78h4.3a.39.39,0,0,0,0-.78Z"/>
        <path class="cls-1" d="M11.34,3.52h-.78a.39.39,0,0,0,0,.78h.78a.39.39,0,0,0,0-.78Z"/>
        <path class="cls-1" d="M7,5.08h-2a.4.4,0,0,0-.39.39.39.39,0,0,0,.39.39H7a.39.39,0,0,0,.39-.39A.4.4,0,0,0,7,5.08Z"/>
        <path class="cls-1" d="M11.34,5.08H8.21a.4.4,0,0,0-.39.39.39.39,0,0,0,.39.39h3.13a.39.39,0,0,0,.39-.39A.4.4,0,0,0,11.34,5.08Z"/>
      </g>
    </g>
  </g>
</svg>
