<svg xmlns="http://www.w3.org/2000/svg" viewBox="0 0 20 20">
  <defs>
    <style>
      .cls-1 {
        fill: #010101;
      }
    </style>
  </defs>
  <title>changeLanguage</title>
  <g id="Layer_2" data-name="Layer 2">
    <g id="Layer_1-2" data-name="Layer 1">
      <g>
        <path class="cls-1" d="M14.6,12c0-.19-.29-.27-.52-.27s-.47.08-.52.27l-1.22,4a.35.35,0,0,1,0,.06c0,.2.3.34.52.34s.24,0,.27-.16l.24-.84H14.8l.24.84c0,.12.13.16.27.16s.52-.14.52-.34c0,0,0,0,0-.06Zm-1.07,2.71.55-1.92.54,1.92Z"/>
        <path class="cls-1" d="M17.85,8.16h-6V5.59L13.79,4.2A.58.58,0,0,0,14,3.72a.56.56,0,0,0-.25-.47l-2-1.41A2.16,2.16,0,0,0,9.69,0H2.15A2.16,2.16,0,0,0,0,2.15V9.69a2.16,2.16,0,0,0,2.15,2.15h6v2.57L6.21,15.8a.58.58,0,0,0-.25.48.56.56,0,0,0,.25.47l2,1.41A2.16,2.16,0,0,0,10.31,20h7.54A2.16,2.16,0,0,0,20,17.85V10.31A2.16,2.16,0,0,0,17.85,8.16ZM2.15,10.67a1,1,0,0,1-1-1V2.15a1,1,0,0,1,1-1H9.69a1,1,0,0,1,1,1,.6.6,0,0,0,.24.48l1.53,1.09-1.53,1.1a.58.58,0,0,0-.24.47V8.16h-.36a2.16,2.16,0,0,0-2.15,2.15v.36Zm16.68,7.18a1,1,0,0,1-1,1H10.31a1,1,0,0,1-1-1,.6.6,0,0,0-.24-.48L7.56,16.28l1.53-1.1a.58.58,0,0,0,.24-.47v-4.4a1,1,0,0,1,1-1h7.54a1,1,0,0,1,1,1Z"/>
        <path class="cls-1" d="M7.72,5.4a.33.33,0,0,0,0-.66H6.25v-.8a.33.33,0,1,0-.66,0v.8H4.12a.33.33,0,0,0,0,.66h.46A3.15,3.15,0,0,0,5.4,7.22a2.5,2.5,0,0,1-1.28.35.33.33,0,0,0-.33.33.33.33,0,0,0,.33.33,3.17,3.17,0,0,0,1.8-.56,3.17,3.17,0,0,0,1.8.56.33.33,0,0,0,.33-.33.33.33,0,0,0-.33-.33,2.5,2.5,0,0,1-1.28-.35A3.23,3.23,0,0,0,7.27,5.4ZM5.92,6.81A2.53,2.53,0,0,1,5.24,5.4H6.6A2.53,2.53,0,0,1,5.92,6.81Z"/>
      </g>
    </g>
  </g>
</svg>
