<svg xmlns="http://www.w3.org/2000/svg" viewBox="0 0 20.19 22.47">
  <defs>
    <style>
      .cls-1 {
        fill: #010101;
      }
    </style>
  </defs>
  <title>complaints</title>
  <g id="Layer_2" data-name="Layer 2">
    <g id="Layer_1-2" data-name="Layer 1">
      <g>
        <path class="cls-1" d="M8.34,18a.44.44,0,1,0-.44-.44A.44.44,0,0,0,8.34,18Z"/>
        <path class="cls-1" d="M18.87,7.29H16.68V.44A.44.44,0,0,0,16.24,0H4a.44.44,0,0,0-.44.44V7.29H1.32A1.32,1.32,0,0,0,0,8.6v3.51a1.32,1.32,0,0,0,.88,1.24v7.8a1.32,1.32,0,0,0,1.31,1.32H18a1.32,1.32,0,0,0,1.31-1.32v-7.8a1.32,1.32,0,0,0,.88-1.24V8.6A1.32,1.32,0,0,0,18.87,7.29ZM16.68,9.92h.88v.88h-.88ZM4.39.88H15.8V10.8H4.39ZM2.63,10.8V9.92h.88v.88ZM18,21.59H2.19a.43.43,0,0,1-.43-.44V13.43H18.43v7.72A.43.43,0,0,1,18,21.59Zm1.31-9.48a.44.44,0,0,1-.44.44H1.32a.44.44,0,0,1-.44-.44V8.6a.44.44,0,0,1,.44-.44H3.51V9H2.19a.44.44,0,0,0-.43.44v1.75a.43.43,0,0,0,.43.44H18a.43.43,0,0,0,.43-.44V9.48A.44.44,0,0,0,18,9H16.68V8.16h2.19a.44.44,0,0,1,.44.44Z"/>
        <path class="cls-1" d="M14.48,15.32H5.71a.43.43,0,0,0-.44.44v3.51a.44.44,0,0,0,.44.44h8.77a.44.44,0,0,0,.44-.44V15.76A.43.43,0,0,0,14.48,15.32Zm-.43,3.51H6.14V16.19h7.91Z"/>
        <path class="cls-1" d="M10.1,18h1.75a.44.44,0,0,0,0-.88H10.1a.44.44,0,0,0,0,.88Z"/>
        <path class="cls-1" d="M7.46,9A.44.44,0,0,0,7.9,8.6a2.2,2.2,0,0,1,4.39,0,.44.44,0,1,0,.88,0A3.08,3.08,0,0,0,7,8.6.44.44,0,0,0,7.46,9Z"/>
        <path class="cls-1" d="M7.46,4.65a.44.44,0,0,0,.44-.44V3.34a.44.44,0,1,0-.88,0v.87A.44.44,0,0,0,7.46,4.65Z"/>
        <path class="cls-1" d="M12.73,4.65a.44.44,0,0,0,.44-.44V3.34a.44.44,0,0,0-.88,0v.87A.44.44,0,0,0,12.73,4.65Z"/>
      </g>
    </g>
  </g>
</svg>
