<svg xmlns="http://www.w3.org/2000/svg" viewBox="0 0 22.22 20">
  <defs>
    <style>
      .cls-1 {
        fill: #aaa;
      }
    </style>
  </defs>
  <title>departmentalNotice</title>
  <g id="Layer_2" data-name="Layer 2">
    <g id="Layer_1-2" data-name="Layer 1">
      <g>
        <path class="cls-1" d="M9.44,19.17V17.82a4.68,4.68,0,0,0-.81-2.62A2.74,2.74,0,0,0,6.5,14a2,2,0,0,0,.42-1.2V11.55a.13.13,0,0,0,0-.06v0a2,2,0,0,0-2.08-2H4.7a2,2,0,0,0-2.08,2v0h0v1.27A2,2,0,0,0,3,14,2.71,2.71,0,0,0,.87,15.2a4.68,4.68,0,0,0-.81,2.62v1.76A.42.42,0,0,0,.49,20H9.36a.42.42,0,0,0,.08-.83ZM3.5,11.54a1.22,1.22,0,0,1,1.25-1.18h0A1.23,1.23,0,0,1,6,11.18a3.36,3.36,0,0,0-1.46.3l-.28.1a1.72,1.72,0,0,1-.74,0Zm0,.85a3.49,3.49,0,0,0,.53,0,1.52,1.52,0,0,0,.51-.08l.29-.1A2.32,2.32,0,0,1,6,12L6,12v.78A1.21,1.21,0,0,1,4.86,14H4.68A1.21,1.21,0,0,1,3.5,12.82Zm3.33,6.78H2.71V17H6.83Zm1.74,0H7.7V16.53a.43.43,0,0,0-.44-.42h-5a.43.43,0,0,0-.44.42v2.64H.93V17.82a3.8,3.8,0,0,1,.67-2.16,1.88,1.88,0,0,1,1.56-.82H6.33a1.89,1.89,0,0,1,1.57.82,3.8,3.8,0,0,1,.67,2.16Z"/>
        <path class="cls-1" d="M21.41,15.2A2.74,2.74,0,0,0,19.28,14a2,2,0,0,0,.42-1.2V11.47a2,2,0,0,0-2.08-2h-.14a2,2,0,0,0-2.08,2v0h0v1.27a2,2,0,0,0,.42,1.2,2.71,2.71,0,0,0-2.17,1.18,4.68,4.68,0,0,0-.81,2.62v1.35h0a.42.42,0,0,0-.43.41.42.42,0,0,0,.43.42h9a.43.43,0,0,0,.44-.42V17.82A4.68,4.68,0,0,0,21.41,15.2Zm-5.13-3.66a1.22,1.22,0,0,1,1.25-1.18h0a1.23,1.23,0,0,1,1.19.82,3.36,3.36,0,0,0-1.46.3l-.28.1a1.72,1.72,0,0,1-.74,0Zm0,.85a3.49,3.49,0,0,0,.53,0,1.52,1.52,0,0,0,.51-.08l.29-.1A2.34,2.34,0,0,1,18.74,12l.09,0v.78A1.22,1.22,0,0,1,17.64,14h-.18a1.21,1.21,0,0,1-1.18-1.19Zm3.33,6.78H15.49V17h4.12Zm1.74,0h-.87V16.53a.43.43,0,0,0-.44-.42h-5a.43.43,0,0,0-.44.42v2.64h-.91V17.82a3.8,3.8,0,0,1,.67-2.16,1.88,1.88,0,0,1,1.56-.82h3.18a1.89,1.89,0,0,1,1.56.82,3.8,3.8,0,0,1,.67,2.16Z"/>
        <path class="cls-1" d="M17.21,18.55h.69a.42.42,0,0,0,.43-.41.42.42,0,0,0-.43-.42h-.69a.43.43,0,0,0-.44.42A.43.43,0,0,0,17.21,18.55Z"/>
        <path class="cls-1" d="M4.77,18.88a.43.43,0,0,0,.44-.42v-.65a.44.44,0,0,0-.88,0v.65A.43.43,0,0,0,4.77,18.88Z"/>
        <path class="cls-1" d="M11.35,19.25a.44.44,0,0,0-.61.08.41.41,0,0,0,.09.58h0a.5.5,0,0,0,.26.08.48.48,0,0,0,.35-.16.42.42,0,0,0-.08-.59Z"/>
        <path class="cls-1" d="M.44,7.27h2.2l.73.88a.87.87,0,0,0,.68.31h0a.89.89,0,0,0,.69-.37l.57-.82H8.42V8.34a.43.43,0,0,0,.44.42h4.7l1.2.84a.87.87,0,0,0,.52.17.69.69,0,0,0,.2,0,.8.8,0,0,0,.58-.44l.28-.54h2.22A.43.43,0,0,0,19,8.34V1.22a.43.43,0,0,0-.44-.41H10.9V.42A.43.43,0,0,0,10.46,0H7.05a.43.43,0,0,0-.44.41.43.43,0,0,0,.44.42h3v5.6H5.11a.44.44,0,0,0-.36.19l-.7,1-.86-1a.44.44,0,0,0-.34-.16h-2V.84H3.54A.42.42,0,0,0,4,.42.42.42,0,0,0,3.54,0H.44A.43.43,0,0,0,0,.42V6.85A.43.43,0,0,0,.44,7.27Zm8.85,0h1.17a.43.43,0,0,0,.44-.42V1.64h7.22V7.92H16.07a.42.42,0,0,0-.39.24l-.4.78L14,8a.43.43,0,0,0-.26-.09H9.29Z"/>
        <path class="cls-1" d="M5.05.75a.43.43,0,0,0,.26.09A.43.43,0,0,0,5.66.67.4.4,0,0,0,5.58.09h0A.46.46,0,0,0,5,.16.41.41,0,0,0,5,.75Z"/>
      </g>
    </g>
  </g>
</svg>
