<svg xmlns="http://www.w3.org/2000/svg" viewBox="0 0 50.01 60"><title>guest_logo</title><g id="Layer_2" data-name="Layer 2"><g id="Layer_1-2" data-name="Layer 1" style="fill: #db3236"><path d="M31.91,1.73A13.29,13.29,0,0,0,25.42,0h-.21a13.24,13.24,0,0,0-6.49,1.68c-2.53,1.47-5.62,4.6-5.92,11.2-.09.87-.86,10,3.78,15.34A11,11,0,0,0,25.08,32h.38A11,11,0,0,0,34,28.22c4.64-5.33,3.87-14.47,3.79-15.34C37.45,6.33,34.41,3.19,31.91,1.73ZM34.76,13.1c0,.09.88,8.66-3.06,13.17A8,8,0,0,1,25.33,29h-.12a8,8,0,0,1-6.36-2.7c-3.92-4.48-3.08-13.09-3.07-13.17s0-.07,0-.1C16.2,4,22.5,3,25.2,3h.14c3.35.07,9,1.46,9.41,10A.28.28,0,0,0,34.76,13.1Z"/><path d="M50,47.69v0c0-.1,0-.2,0-.31-.07-2.45-.23-8.19-5.51-10l-.13,0a34.94,34.94,0,0,1-10.1-4.68A1.62,1.62,0,0,0,32,33a1.7,1.7,0,0,0,.4,2.33A37.83,37.83,0,0,0,43.48,40.5c2.83,1,3.15,4.11,3.24,6.94,0,.11,0,.21,0,.31a22.53,22.53,0,0,1-.26,3.83c-2,1.14-9.7,5.08-21.46,5.08S5.52,52.71,3.53,51.57a21.63,21.63,0,0,1-.25-3.83c0-.1,0-.2,0-.31.09-2.83.4-5.92,3.24-7a37.55,37.55,0,0,0,11.11-5.17A1.69,1.69,0,0,0,18.05,33a1.63,1.63,0,0,0-2.29-.41A34.2,34.2,0,0,1,5.65,37.26l-.12,0C.25,39.15.09,44.89,0,47.33a1.56,1.56,0,0,1,0,.31v0a19.58,19.58,0,0,0,.62,5.61,1.64,1.64,0,0,0,.64.78C1.62,54.32,10.38,60,25,60s23.4-5.69,23.77-5.93a1.62,1.62,0,0,0,.63-.78A19.91,19.91,0,0,0,50,47.69Z"/></g></g></svg>