<svg xmlns="http://www.w3.org/2000/svg" viewBox="0 0 21.18 23.75">
  <defs>
    <style>
      .cls-1 {
        fill: #010101;
      }
    </style>
  </defs>
  <title>staffRoutine</title>
  <g id="Layer_2" data-name="Layer 2">
    <g id="Layer_1-2" data-name="Layer 1">
      <g>
        <path class="cls-1" d="M18.41,2.57h-.72V1.79a1.74,1.74,0,1,0-3.48,0v.78H12.43V1.79A1.74,1.74,0,1,0,9,1.79v.78H7.16V1.79a1.74,1.74,0,1,0-3.48,0v.78H2.77A2.77,2.77,0,0,0,0,5.34V21a2.77,2.77,0,0,0,2.77,2.77H18.41A2.77,2.77,0,0,0,21.18,21V5.34A2.77,2.77,0,0,0,18.41,2.57Zm-3.22-.78a.77.77,0,1,1,1.53,0V5a.77.77,0,1,1-1.53,0Zm-5.26,0a.76.76,0,1,1,1.52,0V5A.76.76,0,1,1,9.93,5Zm-5.27,0A.78.78,0,0,1,5.42,1a.79.79,0,0,1,.77.81V5a.8.8,0,0,1-.77.82A.79.79,0,0,1,4.66,5ZM19.55,21a1.14,1.14,0,0,1-1.14,1.14H2.77A1.14,1.14,0,0,1,1.63,21V6.64H19.55Z"/>
        <path class="cls-1" d="M11.29,16.55v-1.4H9.89v1.4H5.67a2.07,2.07,0,0,1-1-.29v2.4A1.41,1.41,0,0,0,6,20.07h9.14a1.41,1.41,0,0,0,1.4-1.41v-2.4a2.07,2.07,0,0,1-1,.29Z"/>
        <path class="cls-1" d="M5.67,15.85H9.18v-1.4h.71V10.58h1.4v3.87H12v1.4h3.52a1.41,1.41,0,0,0,1.41-1.4V11.63a1.41,1.41,0,0,0-1.41-1.4H13.65A1.75,1.75,0,0,0,11.9,8.47H9.28a1.77,1.77,0,0,0-1.75,1.76H5.67a1.41,1.41,0,0,0-1.41,1.4v2.82A1.41,1.41,0,0,0,5.67,15.85ZM9.28,9.17H11.9a1.07,1.07,0,0,1,1,1.06H8.23A1.06,1.06,0,0,1,9.28,9.17Z"/>
      </g>
    </g>
  </g>
</svg>
