<svg xmlns="http://www.w3.org/2000/svg" viewBox="0 0 50.01 60"><title>staff_logo</title><g id="Layer_2" data-name="Layer 2"><g id="Layer_1-2" data-name="Layer 1"><path d="M24.66,31.89h.39a11.05,11.05,0,0,0,8.5-3.73c4.65-5.32,3.88-14.44,3.79-15.31C37,6.31,34,3.19,31.49,1.73A13.26,13.26,0,0,0,25,0h-.2a13.24,13.24,0,0,0-6.49,1.68c-2.54,1.46-5.63,4.58-5.93,11.17-.08.87-.85,10,3.79,15.31A11,11,0,0,0,24.66,31.89ZM15.37,13.07s0-.07,0-.1c.41-9,6.7-10,9.4-10h.15c3.34.08,9,1.46,9.41,10a.28.28,0,0,0,0,.1c0,.09.88,8.64-3.06,13.14a8,8,0,0,1-6.37,2.69h-.13a8,8,0,0,1-6.36-2.69C14.51,21.74,15.35,13.15,15.37,13.07Z"/><path d="M48.79,54.09a1.66,1.66,0,0,0,.63-.78A19.84,19.84,0,0,0,50,47.72v0c0-.1,0-.2,0-.31-.07-2.45-.23-8.18-5.51-10l-.13,0a34.94,34.94,0,0,1-10.1-4.68,1.5,1.5,0,0,0-2.29.41,1.45,1.45,0,0,1-.33.26l-6.91,5.39-6.5-5.34a2,2,0,0,0-.17-.32,1.63,1.63,0,0,0-2.29-.41A34.72,34.72,0,0,1,5.65,37.31l-.12,0C.25,39.19.09,44.92,0,47.36a1.56,1.56,0,0,1,0,.31v0a19.54,19.54,0,0,0,.62,5.61,1.68,1.68,0,0,0,.64.78C1.62,54.33,10.38,60,25,60S48.42,54.32,48.79,54.09Zm-2.07-6.62c0,.11,0,.21,0,.31a22.48,22.48,0,0,1-.26,3.82c-1.92,1.11-9.31,4.86-20.55,5V42.8l5.9,3.66,4.64-8.65a34.75,34.75,0,0,0,7,2.73C46.31,41.57,46.63,44.65,46.72,47.47ZM33,35.58l1.46.89L31,42.68,27.25,40.3Zm-16.54,0,5.83,4.78L18.4,42.69l-4-5.58ZM3.28,47.77c0-.1,0-.2,0-.31.09-2.82.4-5.9,3.24-6.93a33.91,33.91,0,0,0,5.42-2l5.67,7.89,5.46-3.28V56.63a43.89,43.89,0,0,1-19.55-5A21.52,21.52,0,0,1,3.28,47.77Z"/><circle cx="21" cy="47.84" r="1"/><circle cx="21" cy="50.33" r="1"/><circle cx="21" cy="52.82" r="1"/><path d="M33,50.67,33.44,52l.33,1.38,4-1.32a36.2,36.2,0,0,0,4.59-1.84h0a1.52,1.52,0,0,0-.18-2.61l-1.5.49Z"/></g></g></svg>