<svg xmlns="http://www.w3.org/2000/svg" viewBox="0 0 21.18 23.75">
  <defs>
    <style>
      .cls-1 {
        fill: #fff;
      }
    </style>
  </defs>
  <title>studentRoutine</title>
  <g id="Layer_2" data-name="Layer 2">
    <g id="Layer_1-2" data-name="Layer 1">
      <g>
        <path class="cls-1" d="M18.41,2.57h-.72V1.79a1.74,1.74,0,1,0-3.48,0v.78H12.43V1.79A1.74,1.74,0,1,0,9,1.79v.78H7.16V1.79a1.74,1.74,0,1,0-3.48,0v.78H2.77A2.77,2.77,0,0,0,0,5.34V21a2.77,2.77,0,0,0,2.77,2.77H18.41A2.77,2.77,0,0,0,21.18,21V5.34A2.77,2.77,0,0,0,18.41,2.57Zm-3.22-.78a.77.77,0,1,1,1.53,0V5a.77.77,0,1,1-1.53,0Zm-5.26,0a.76.76,0,1,1,1.52,0V5A.76.76,0,1,1,9.93,5Zm-5.27,0A.78.78,0,0,1,5.42,1a.79.79,0,0,1,.77.81V5a.8.8,0,0,1-.77.82A.79.79,0,0,1,4.66,5ZM19.55,21a1.14,1.14,0,0,1-1.14,1.14H2.77A1.14,1.14,0,0,1,1.63,21V6.64H19.55Z"/>
        <g>
          <path class="cls-1" d="M4.76,15.5h.1a.43.43,0,0,0,.42-.34l.64-2.86.15-.05v3l-.35,4.27A.52.52,0,0,0,6.2,20h0a.5.5,0,0,0,.51-.47l.32-3.87a.46.46,0,0,0,.2.05.46.46,0,0,0,.21-.05l.31,3.87a.52.52,0,0,0,.52.47h0a.52.52,0,0,0,.48-.56l-.35-4.27v-3l.38.12h0l.63.21v2.33a.69.69,0,0,0,.69.69h1.26l-1.11,4.12a.27.27,0,0,0,.19.32h.07a.26.26,0,0,0,.25-.19L12,15.61h.89v3a.25.25,0,0,0,.26.26.26.26,0,0,0,.26-.26v-3h.88l1.14,4.25a.25.25,0,0,0,.25.19h.07a.26.26,0,0,0,.18-.32l-1.1-4.12h1.25a.69.69,0,0,0,.7-.69V10.77a.69.69,0,0,0-.7-.69H13.39V9.56a.26.26,0,0,0-.26-.26.26.26,0,0,0-.26.26v.52H10.19a.69.69,0,0,0-.69.69v.91l-.36-.12a7.07,7.07,0,0,0-1.7-.36l-.11.2h0l.29,2.27-.34.6-.35-.6.29-2.27h0l-.11-.2a6.52,6.52,0,0,0-1.71.37l0,0-.08.05,0,0a.18.18,0,0,0-.05.07.2.2,0,0,0,0,.08s0,0,0,0L4.43,15A.43.43,0,0,0,4.76,15.5Zm5.08-2.79,1.1.36a.3.3,0,0,0,.13,0,.42.42,0,0,0,.41-.29s0-.06,0-.09l2.59-1.2a.1.1,0,0,0,0-.12.08.08,0,0,0-.11,0l-2.54,1.17a.45.45,0,0,0-.27-.27L9.84,11.8v-1a.35.35,0,0,1,.35-.34h5.87a.35.35,0,0,1,.35.34v4.15a.35.35,0,0,1-.35.34H10.19a.35.35,0,0,1-.35-.34Z"/>
          <path class="cls-1" d="M7.27,11.1a1.28,1.28,0,0,0,1.1-1.3,1.1,1.1,0,0,0-2.19,0A1.29,1.29,0,0,0,7.27,11.1Z"/>
        </g>
      </g>
    </g>
  </g>
</svg>
