<svg xmlns="http://www.w3.org/2000/svg" viewBox="0 0 50 60"><title>student_logo</title><g id="Layer_2" data-name="Layer 2"><g id="Layer_1-2" data-name="Layer 1" style="fill: #4885ed"><path d="M24.93,24.52h.29a8.24,8.24,0,0,0,6.39-2.88c3.45-4.06,2.91-11,2.83-11.76-.22-5-2.51-7.43-4.39-8.55A9.78,9.78,0,0,0,25.19,0H25a9.75,9.75,0,0,0-4.86,1.29C18.27,2.42,16,4.82,15.73,9.88c-.08.78-.62,7.7,2.83,11.76A8.2,8.2,0,0,0,24.93,24.52ZM18.14,10.09h0v0s0,0,0,0c.3-6.77,4.91-7.5,6.87-7.5h.11c2.45.06,6.6,1.11,6.88,7.5a.28.28,0,0,0,0,.09c0,.25.58,6.58-2.24,9.89a5.82,5.82,0,0,1-4.66,2H25a5.78,5.78,0,0,1-4.64-2C17.5,16.61,18.13,10.17,18.14,10.09Z"/><path d="M13.06,29.17a5.9,5.9,0,0,1,.83.5l0,0h0a28.85,28.85,0,0,0,5.61-3l0,0a1.36,1.36,0,0,0,.31-1.84,1.24,1.24,0,0,0-1.77-.32,25.64,25.64,0,0,1-6.53,3.26l-.06,0,0,.06A2.93,2.93,0,0,0,13.06,29.17Z"/><path d="M31.83,24.48a1.24,1.24,0,0,0-1.77.32,1.36,1.36,0,0,0,.31,1.84,27.73,27.73,0,0,0,6,3.18h0l0,0c.38-.28.77-.59,1.14-.9s.82-.66,1.22-.95l.11-.07-.12,0a25.72,25.72,0,0,1-6.91-3.38Z"/><path d="M46.32,35.41A3.11,3.11,0,0,0,44,38.49v6.12a3.11,3.11,0,0,0,2.28,3.08,3,3,0,0,0,3.68-3V38.44A3,3,0,0,0,46.32,35.41Z"/><path d="M2.29,47.69a3,3,0,0,0,3.67-3V38.44a3,3,0,0,0-3.67-3A3.11,3.11,0,0,0,0,38.49v6.12A3.11,3.11,0,0,0,2.29,47.69Z"/><path d="M9.17,38.44v6.22a6.1,6.1,0,0,1-6,6.22v1.37a1.5,1.5,0,0,0,1.46,1.53c7.53,0,13.55,2.47,19.18,6.22V34.25a35.77,35.77,0,0,0-19.17-5,1.5,1.5,0,0,0-1.47,1.52v1.41A6.1,6.1,0,0,1,9.17,38.44Z"/><path d="M26.61,60c5.63-3.75,11.65-6.22,19.17-6.22a1.5,1.5,0,0,0,1.47-1.53V50.88a6.11,6.11,0,0,1-6-6.22V38.44a6.11,6.11,0,0,1,6-6.22V30.81a1.5,1.5,0,0,0-1.47-1.52,35.75,35.75,0,0,0-19.17,5Z"/></g></g></svg>