<svg xmlns="http://www.w3.org/2000/svg" viewBox="0 0 30 29.95"><defs><style>.cls-1{fill:#fff;}</style></defs><title>calender_btn</title><g id="Layer_2" data-name="Layer 2"><g id="Layer_1-2" data-name="Layer 1"><g id="calendar"><path class="cls-1" d="M27.51,2.8H23.33V1a1,1,0,0,0-.76-1,.94.94,0,0,0-1.14.91V2.8H16V1a1,1,0,0,0-.76-1,.94.94,0,0,0-1.14.91V2.8H8.33V1a1,1,0,0,0-.76-1A.94.94,0,0,0,6.43.93V2.8H2.49A2.5,2.5,0,0,0,0,5.3V27.45A2.5,2.5,0,0,0,2.49,30h25A2.5,2.5,0,0,0,30,27.45V5.29A2.5,2.5,0,0,0,27.51,2.8Zm.59,24.62a.63.63,0,0,1-.63.62H2.53a.63.63,0,0,1-.63-.62V5.33a.63.63,0,0,1,.63-.62h3.9V6.53a1,1,0,0,0,.76,1,.94.94,0,0,0,1.14-.91V4.71h5.72V6.53a1,1,0,0,0,.76,1A.94.94,0,0,0,16,6.58V4.71h5.48V6.53a1,1,0,0,0,.76,1,.94.94,0,0,0,1.14-.91V4.71h4.14a.63.63,0,0,1,.63.62Z"/><rect class="cls-1" x="6.43" y="11.37" width="3.81" height="2.86"/><rect class="cls-1" x="6.43" y="15.9" width="3.81" height="2.86"/><rect class="cls-1" x="6.43" y="20.66" width="3.81" height="2.86"/><rect class="cls-1" x="13.1" y="20.66" width="3.81" height="2.86"/><rect class="cls-1" x="13.1" y="15.9" width="3.81" height="2.86"/><rect class="cls-1" x="13.1" y="11.37" width="3.81" height="2.86"/><rect class="cls-1" x="19.52" y="20.66" width="3.81" height="2.86"/><rect class="cls-1" x="19.52" y="15.9" width="3.81" height="2.86"/><rect class="cls-1" x="19.52" y="11.37" width="3.81" height="2.86"/></g></g></g></svg>