<svg xmlns="http://www.w3.org/2000/svg" viewBox="0 0 30 18.87"><title>course_btn</title><g id="Layer_2" data-name="Layer 2"><g id="Layer_1-2" data-name="Layer 1"><path d="M6.48,10.41v4.91a19.72,19.72,0,0,1,17,0V10.41a18,18,0,0,0-17,0Z"/><path d="M28.31,9.36,30,8.46l-1.69-.93V6.69h0a1,1,0,0,0-.22-.82.86.86,0,0,0-.41-.23,2.3,2.3,0,0,0-1,.07,2.51,2.51,0,0,0-.88.45L14.64,0,0,8.4,5.55,11c0-.3,0-.6-.08-.89a19.06,19.06,0,0,1,19,0v1.36l3.07-1.65v6.62H26.6v2.48l1.3-.94,1.48.94V16.45H28.31ZM27,6.46c.17-.06.32-.11.42,0a.34.34,0,0,1,.12.27h0v.42l-.86-.48A1.32,1.32,0,0,1,27,6.46Zm.26,2.87a.72.72,0,0,1-.72-.72.73.73,0,0,1,.72-.73.64.64,0,0,1,.28.06h0l0,0h0l0,0h0l0,0h0l0,0v0l0,0h0l0,0h0l0,0h0s0,0,0,.05h0a.14.14,0,0,1,0,.06h0a.64.64,0,0,1,0,.07h0a.11.11,0,0,1,0,0v0s0,.05,0,.07,0,0,0,.07v0a.06.06,0,0,1,0,0v0a.14.14,0,0,1,0,.06h0a.08.08,0,0,1,0,.05v0l0,0V9a.05.05,0,0,1,0,0V9l0,0,0,0,0,0v0l0,0,0,0,0,0,0,0,0,0h0l0,0h0A.82.82,0,0,1,27.26,9.33Z"/></g></g></svg>