<svg xmlns="http://www.w3.org/2000/svg" viewBox="0 0 30 27.4"><title>live_stream_btn</title><g id="Layer_2" data-name="Layer 2"><g id="Layer_1-2" data-name="Layer 1" style="fill: #fff;"><path d="M0,0V16H30V0ZM10,11.67H5V4.76H6.9V10H10Zm2.62,0H10.71V4.76h1.91Zm4.68,0H15.73L13.16,4.76h2l1.36,4.52,1.33-4.52h2Zm7.94,0H20.48V4.76h4.76V6.43h-3.1V7.62h2.62V9.05H22.14V10h3.1Z"/><path d="M24.76,17.86H30v3.33H24.76Z"/><path d="M18.42,22.84H11.63l-.69,2.81H9.28V27.4H20.77V25.65H19.1Z"/><path d="M0,17.86H23.1v3.33H0Z"/></g></g></svg>