<svg xmlns="http://www.w3.org/2000/svg" viewBox="0 0 22 17">
  <defs>
    <style>
      .cls-1 {
        fill: #fff;
      }
    </style>
  </defs>
  <title>logout</title>
  <g id="Layer_2" data-name="Layer 2">
    <g id="Layer_1-2" data-name="Layer 1">
      <g id="_Group_" data-name="&lt;Group&gt;">
        <path id="_Path_" data-name="&lt;Path&gt;" class="cls-1" d="M18.59,7.46H7A1,1,0,0,0,7,9.54H18.59l-1.3,1.34a1.07,1.07,0,0,0,0,1.47,1,1,0,0,0,1.42,0l3-3.12.06-.07,0,0,0-.06v0a.25.25,0,0,0,0-.07h0l0-.08h0l0-.09h0s0-.06,0-.09v0a.22.22,0,0,0,0-.08.5.5,0,0,0,0-.2.22.22,0,0,0,0-.08v0s0-.06,0-.09h0l0-.09h0l0-.08h0a.25.25,0,0,0,0-.07v0l0-.06,0,0-.06-.07-3-3.12a1,1,0,0,0-1.42,0,1.07,1.07,0,0,0,0,1.47Z"/>
        <path id="_Path_2" data-name="&lt;Path&gt;" class="cls-1" d="M8.18,17A8.1,8.1,0,0,0,15,13.24a1.07,1.07,0,0,0-.27-1.45,1,1,0,0,0-1.39.29,6.11,6.11,0,0,1-5.13,2.84A6.31,6.31,0,0,1,2,8.5,6.31,6.31,0,0,1,8.18,2.08a6.14,6.14,0,0,1,5.13,2.83,1,1,0,0,0,1.38.28A1.06,1.06,0,0,0,15,3.75,8.08,8.08,0,0,0,8.18,0,8.35,8.35,0,0,0,0,8.5,8.35,8.35,0,0,0,8.18,17Z"/>
      </g>
    </g>
  </g>
</svg>
