<svg xmlns="http://www.w3.org/2000/svg" viewBox="0 0 280 120"><defs><style>.cls-1{fill:#0f6;}.cls-2{fill:#ed3533;}.cls-3{fill:#1cb9ff;}.cls-4{fill:#ffe42e;}.cls-5{fill:#5af9ff;}.cls-6{fill:#fff;}</style></defs><title>splashScreen1_logo</title><g id="Layer_2" data-name="Layer 2"><g id="Layer_1-2" data-name="Layer 1"><path class="cls-1" d="M5.73,87.59h0a5.86,5.86,0,0,0,5.73-6V61.2a5.87,5.87,0,0,0-5.73-6h0A5.88,5.88,0,0,0,0,61.2V81.6A5.87,5.87,0,0,0,5.73,87.59Z"/><path class="cls-1" d="M5.73,45.6h0a5.86,5.86,0,0,0,5.73-6h0a5.86,5.86,0,0,0-5.73-6h0a5.87,5.87,0,0,0-5.73,6H0A5.87,5.87,0,0,0,5.73,45.6Z"/><path class="cls-2" d="M153.6,48.58c0,4.28-4.82,6.19-7.26,2.88l-11.77-16h0c-2.4-3.43-7.33-1.55-7.33,2.79v76.61a5.4,5.4,0,0,0,1.34,3.61h0c2.89,3.21,7.83.93,7.83-3.61V64.76c0-4.27,4.82-6.19,7.26-2.89l11.83,16,.05.06c2.46,3.25,7.22,1.31,7.22-2.93V5.11a5.4,5.4,0,0,0-1.34-3.61h0c-2.89-3.21-7.83-.93-7.83,3.61Z"/><path class="cls-2" d="M50.44,48.58c0,4.28-4.83,6.19-7.27,2.88l-11.77-16h0c-2.39-3.43-7.33-1.55-7.33,2.79v76.61a5.41,5.41,0,0,0,1.35,3.61h0c2.88,3.21,7.82.93,7.82-3.61V64.76c0-4.27,4.82-6.19,7.26-2.89l11.83,16,.05.06c2.46,3.25,7.23,1.31,7.23-2.93V5.11A5.41,5.41,0,0,0,58.26,1.5h0c-2.88-3.21-7.82-.93-7.82,3.61Z"/><path class="cls-3" d="M103.17,62.75c0,10-3.77,14.19-10.32,14.19S82.53,72.79,82.53,62.75V39a5.28,5.28,0,0,0-5.16-5.4h0A5.28,5.28,0,0,0,72.22,39V63.2c0,15.56,7.89,24.16,21.2,24.16s21.21-8.6,21.21-24.16V39.61a5.87,5.87,0,0,0-5.73-6h0a5.86,5.86,0,0,0-5.73,6Z"/><path class="cls-4" d="M202.5,44a14.72,14.72,0,0,1,9.26,3.15,4.81,4.81,0,0,0,6.39-.41h0a5.41,5.41,0,0,0-.52-8.1,25.61,25.61,0,0,0-15.69-4.92c-15.16,0-26.44,11.25-26.44,27s11.28,26.95,26.37,26.95a25.5,25.5,0,0,0,15.81-5,5.43,5.43,0,0,0,.5-8.09h0a4.82,4.82,0,0,0-6.42-.38,14.57,14.57,0,0,1-9.26,3.18c-9.11,0-15.59-6.85-15.59-16.68S193.39,44,202.5,44Z"/><path class="cls-5" d="M253.35,33.83c-15.38,0-26.65,11.43-26.65,26.88S238,87.59,253.35,87.59,280,76.23,280,60.71,268.66,33.83,253.35,33.83Zm0,43.51c-8.7,0-15.24-6.76-15.24-16.63s6.54-16.63,15.24-16.63,15.24,6.75,15.24,16.63S262.05,77.34,253.35,77.34Z"/><path class="cls-6" d="M197.3,19.65v3.43h-1.61V13.84h3.54a3.58,3.58,0,0,1,2.46.81,2.71,2.71,0,0,1,.91,2.13,2.65,2.65,0,0,1-.89,2.12,3.79,3.79,0,0,1-2.5.75Zm0-1.29h1.93a1.88,1.88,0,0,0,1.3-.41,1.46,1.46,0,0,0,.45-1.16,1.62,1.62,0,0,0-.45-1.2,1.83,1.83,0,0,0-1.26-.46h-2Z"/><path class="cls-6" d="M212,18.7a5.68,5.68,0,0,1-.47,2.38,3.62,3.62,0,0,1-1.35,1.58,3.74,3.74,0,0,1-2,.55,3.78,3.78,0,0,1-2-.55,3.67,3.67,0,0,1-1.36-1.57,5.37,5.37,0,0,1-.48-2.34v-.52a5.63,5.63,0,0,1,.48-2.39,3.54,3.54,0,0,1,3.35-2.13,3.72,3.72,0,0,1,2,.54,3.53,3.53,0,0,1,1.35,1.57,5.59,5.59,0,0,1,.49,2.37Zm-1.61-.48a4,4,0,0,0-.58-2.36,2,2,0,0,0-3.28,0,4,4,0,0,0-.6,2.31v.53a4,4,0,0,0,.6,2.36,1.9,1.9,0,0,0,1.64.83,1.86,1.86,0,0,0,1.64-.82,4,4,0,0,0,.58-2.37Z"/><path class="cls-6" d="M221.52,20.8l1.43-7h1.59l-2.13,9.24h-1.54l-1.76-6.75-1.79,6.75h-1.55l-2.13-9.24h1.59l1.44,6.94,1.76-6.94h1.35Z"/><path class="cls-6" d="M231.77,19H228V21.8h4.44v1.28h-6V13.84h6v1.29H228v2.55h3.8Z"/><path class="cls-6" d="M237.76,19.53H236v3.55h-1.61V13.84h3.25a3.77,3.77,0,0,1,2.47.72,2.52,2.52,0,0,1,.87,2.07,2.68,2.68,0,0,1-.44,1.56,3,3,0,0,1-1.25,1L241.33,23v.08h-1.72ZM236,18.23h1.65a1.85,1.85,0,0,0,1.27-.41,1.43,1.43,0,0,0,.46-1.12,1.5,1.5,0,0,0-.43-1.15,1.79,1.79,0,0,0-1.25-.42H236Z"/><path class="cls-6" d="M248.53,19h-3.8V21.8h4.44v1.28h-6V13.84h6v1.29h-4.4v2.55h3.8Z"/><path class="cls-6" d="M251.13,23.08V13.84h2.73a4.31,4.31,0,0,1,2.17.54,3.79,3.79,0,0,1,1.47,1.55,4.9,4.9,0,0,1,.52,2.3v.46A4.86,4.86,0,0,1,257.5,21a3.65,3.65,0,0,1-1.5,1.54,4.44,4.44,0,0,1-2.21.54Zm1.6-7.95V21.8h1.05a2.44,2.44,0,0,0,1.94-.79,3.47,3.47,0,0,0,.69-2.27v-.52a3.49,3.49,0,0,0-.66-2.29,2.29,2.29,0,0,0-1.89-.8Z"/><path class="cls-6" d="M264.16,23.08V13.84h3.17a3.84,3.84,0,0,1,2.38.63,2.2,2.2,0,0,1,.82,1.87,2,2,0,0,1-.34,1.14,2.23,2.23,0,0,1-1,.79,2,2,0,0,1,1.15.76,2.21,2.21,0,0,1,.41,1.35,2.47,2.47,0,0,1-.83,2,3.62,3.62,0,0,1-2.39.7Zm1.6-5.35h1.58a1.79,1.79,0,0,0,1.17-.34,1.17,1.17,0,0,0,.42-1,1.17,1.17,0,0,0-.39-1,1.91,1.91,0,0,0-1.21-.31h-1.57Zm0,1.18V21.8h1.79a1.74,1.74,0,0,0,1.18-.38,1.31,1.31,0,0,0,.42-1,1.32,1.32,0,0,0-1.47-1.47Z"/><path class="cls-6" d="M275.67,18.22l2.13-4.38h1.78l-3.1,5.84v3.4h-1.61v-3.4l-3.11-5.84h1.79Z"/></g></g></svg>