<svg xmlns="http://www.w3.org/2000/svg" viewBox="0 0 30.02 25.75"><title>students_btn</title><g id="Layer_2" data-name="Layer 2"><g id="Layer_1-2" data-name="Layer 1"><g id="students_btn"><path d="M7.92,9.25a3.93,3.93,0,0,0,3.93-3.93c0-1.36.48-2.6-.57-3.31-.63-.42-3.39-.63-4.2-.63A5.45,5.45,0,0,0,4.16,2.76C3.31,3.48,4,4.11,4,5.32A3.93,3.93,0,0,0,7.92,9.25ZM5.17,4.93A2.13,2.13,0,0,1,6.39,5L7.6,4.45S7,5.34,7.53,5a6.85,6.85,0,0,1,3.31-.1,3.56,3.56,0,0,1,.05.47,2.88,2.88,0,1,1-5.76,0A3.88,3.88,0,0,1,5.17,4.93Z"/><path d="M27.12,4.76A5,5,0,0,0,27,4.1,4.67,4.67,0,0,0,22.1,0c-3.05.07-3.72,2.37-3.88,3.77A4.38,4.38,0,0,0,18,4.85c-4,.69-3.54,4.72-1.11,4.79a4.63,4.63,0,0,1,1.16-3.77,4.57,4.57,0,0,0,9,.33,6.08,6.08,0,0,1,.84,3.44C31.68,9.61,29.8,5.24,27.12,4.76ZM22.61,8.41A3.28,3.28,0,0,1,19.33,5.2C20,5,20.46,3.83,20.46,3.83s.39.13.39,1.41c.68.24,1.85-2,1.85-2V5a14.27,14.27,0,0,0,3.09-.07l.09.07s0,.08,0,.12A3.28,3.28,0,0,1,22.61,8.41Z"/><polygon points="23.48 9.76 21.6 9.76 19.98 9.76 15.26 15.52 10.68 9.76 5.44 9.76 0 15.73 1.14 16.9 5.03 13.58 5.03 20.02 5.75 20.02 5.75 25.04 5.29 25.04 5.28 25.75 7.66 25.75 7.66 25.18 7.66 20.26 8.61 20.26 8.61 25.18 8.61 25.75 10.76 25.75 10.76 25.04 10.29 25.04 10.29 20.02 11.24 20.02 11.24 13.85 14.3 17.05 15.58 16.74 16.28 16.91 19.82 12.87 20.02 14.47 16.74 20.02 20.55 20.02 20.55 25.04 20.07 25.04 20.07 25.52 22.46 25.52 22.46 25.04 22.46 25.04 22.46 20.02 23.18 20.02 23.18 25.02 23.18 25.52 25.33 25.52 25.33 25.04 24.85 25.04 24.85 20.02 27.78 20.02 24.89 14.4 25.05 12.43 27.81 16.12 29.63 15.67 25.26 9.76 23.48 9.76"/></g></g></g></svg>