<svg xmlns="http://www.w3.org/2000/svg" viewBox="0 0 30 30"><title>university_logo</title><g id="Layer_2" data-name="Layer 2"><g id="Layer_1-2" data-name="Layer 1"><path d="M29.94,11.09c-.24-.17-.55-.35-.81-.23s-.37.39-.45,1H22.09V9.48a.8.8,0,0,0,.5,0A.59.59,0,0,0,23,9.21a.71.71,0,0,0-.35-1L16,4.36l-.17-.1c-.18-.11-.24-.19-.23-.37V3.25h2.68a.72.72,0,0,0,.8-.79V2.13c0-.41,0-.84,0-1.27A1.67,1.67,0,0,0,19,.32,1.43,1.43,0,0,1,18.88.1l0-.1H14.53l0,.1c0,.08-.05.15-.08.22a1.45,1.45,0,0,0-.15.55c0,.88,0,1.82,0,3a.35.35,0,0,1-.2.35l-1,.57L8.44,7.52c-.47.28-.93.56-1.35.84a.6.6,0,0,0-.16.86.7.7,0,0,0,.82.29l.13,0c0,.68,0,1.5,0,2.37H1.31a.39.39,0,0,0,0-.15c0-.06,0-.12,0-.19A.88.88,0,0,0,1,11c-.16-.14-.49-.29-1,.13l0,0v6.25l.05,0a.75.75,0,0,0,1,.1.93.93,0,0,0,.29-.69c0-.36,0-.73,0-1.08,0-.15,0-.29,0-.43V13.21H7.87V26.69H6.68a.73.73,0,0,0-.76.69.62.62,0,0,0,.2.45.78.78,0,0,0,.56.24H23.34a.75.75,0,0,0,.74-.67.67.67,0,0,0-.19-.47.79.79,0,0,0-.55-.24H22.09V13.21H28.7v2.6q0,6.44,0,12.88H3.27V27.24l.1,0A2.36,2.36,0,0,0,5,24.84c0-.4-.07-.81-.1-1.21s-.07-1-.13-1.47a5.17,5.17,0,0,0-.73-2.32,2.54,2.54,0,0,0-.89-.9,1.45,1.45,0,0,0-1.89.66,6.27,6.27,0,0,0-.87,2.52l-.15.94-.06.43v2a2.52,2.52,0,0,0,.82,1.21,6,6,0,0,0,.65.41l.28.16v.41c0,.45,0,1,0,1.47a1.55,1.55,0,0,0,.14.51c0,.06.05.13.07.2l0,.1H30V11.13ZM15.69,25a.82.82,0,0,0,.47-.58.85.85,0,0,0-.46-.7.2.2,0,0,1,0-.1c0-.41,0-.83,0-1.25v-.27h2.05v4.5h-2Zm-1.46-1.24c-.15.11-.49.39-.38.76a.94.94,0,0,0,.25.4,1.34,1.34,0,0,0,.11.14l0,0v1.5h-2v-4.5h2Zm4.94-1.66h.14c.57,0,.77-.19.76-.71s-.44-.67-.77-.67H10.68a.71.71,0,0,0-.81.71.64.64,0,0,0,.17.44.87.87,0,0,0,.63.23h.16v4.58H9.25V11.11c0-1.28,0-2.1,0-2.44l.36-.21c1.74-1,3.49-2.07,5.23-3.09a.25.25,0,0,1,.19,0c.58.33,1.15.67,1.72,1l1.1.64c.95.56,1.9,1.13,2.86,1.68v15.1c0,.95,0,2.21,0,2.9H19.17Z"/><path d="M13.7,16c0-.41-.24-.51-.44-.52l-.38,0a8.47,8.47,0,0,0-1,0c-.57.05-.57.41-.56.67v1.81a.55.55,0,0,0,.58.59h1.23a.54.54,0,0,0,.58-.58c0-.22,0-.44,0-.66v-.58C13.71,16.46,13.71,16.23,13.7,16Z"/><path d="M18.22,15.48l-.42,0a6.28,6.28,0,0,0-1,0c-.54,0-.58.36-.57.66s0,.39,0,.59v1.24a.54.54,0,0,0,.55.56h1.31a.51.51,0,0,0,.53-.52c0-.63,0-1.3,0-2A.45.45,0,0,0,18.22,15.48Z"/><path d="M11.87,12.56h1.24A.54.54,0,0,0,13.7,12c0-.21,0-.42,0-.64v-.56c0-.22,0-.44,0-.66,0-.52-.31-.58-.59-.57H11.88c-.39,0-.56.16-.57.54,0,.58,0,1.2,0,1.94A.54.54,0,0,0,11.87,12.56Z"/><path d="M24.13,23.49a.53.53,0,0,0,.56.54h1.23a.54.54,0,0,0,.59-.59c0-.21,0-.43,0-.64v-.57c0-.22,0-.44,0-.66,0-.51-.3-.57-.59-.57H24.69c-.39,0-.56.16-.56.54C24.12,22.13,24.12,22.74,24.13,23.49Z"/><path d="M25.92,15.46H24.69c-.39,0-.56.17-.56.54,0,.58,0,1.2,0,1.95a.52.52,0,0,0,.56.53h1.23a.55.55,0,0,0,.59-.59c0-.22,0-.43,0-.64v-.57c0-.22,0-.44,0-.66h0C26.49,15.52,26.21,15.45,25.92,15.46Z"/><path d="M5.42,16c0-.51-.29-.58-.59-.57H3.6c-.39,0-.56.17-.56.54,0,.58,0,1.2,0,1.94a.54.54,0,0,0,.57.54H4.83a.53.53,0,0,0,.59-.58c0-.22,0-.43,0-.64v-.57C5.43,16.47,5.43,16.25,5.42,16Z"/><path d="M16.26,12a.54.54,0,0,0,.57.56h1.26a.53.53,0,0,0,.56-.54c0-.74,0-1.36,0-1.94,0-.38-.17-.54-.57-.54H16.85c-.42,0-.58.16-.59.6V12Z"/></g></g></svg>