<svg xmlns="http://www.w3.org/2000/svg" viewBox="0 0 635.42 322.66"><defs><style>.cls-1{fill:#0f6;}.cls-2{fill:#ed3533;}</style></defs><title>cyverhub_logo</title><g id="Layer_2" data-name="Layer 2"><g id="Layer_1-2" data-name="Layer 1"><path class="cls-1" d="M290.6,300.32a6.23,6.23,0,0,1-1.63-2.25c-.83-1.73-1.25-4.5-1.25-8.21V168.46H264.25V289c0,9.42,2.36,17.08,7,22.75a27.65,27.65,0,0,0,8.71,7.22l.2.11.22.06a11,11,0,0,0,10.32-18.76Z"/><path class="cls-1" d="M478.71,272.71A36,36,0,0,1,477,284.64a21.17,21.17,0,0,1-6.94,10.71,19.21,19.21,0,0,1-5.27,2.69,22.44,22.44,0,0,1-7,1.15h-15.3a20.32,20.32,0,0,1-8.81-1.79,17.92,17.92,0,0,1-8.57-8.44c-2.37-4.17-3.57-9.64-3.57-16.25v-57a11.75,11.75,0,0,0-23.47,0v57.77a61.72,61.72,0,0,0,2.62,18.58c2.81,9.26,7.73,16.67,14.64,22.05A38.44,38.44,0,0,0,427,320.27a42.27,42.27,0,0,0,14.1,2.39h15.22a42.2,42.2,0,0,0,18.31-4,39.26,39.26,0,0,0,18.69-18.37c4.08-7.66,6.07-16.42,6.07-26.8V215.74c.75-6.72-4.64-12.35-10.57-12.23-5.78.12-10.87,5.68-10.12,12.23Z"/><path class="cls-1" d="M633.32,240.73a30.38,30.38,0,0,0-4.88-9.81,30,30,0,0,0-13.79-9.81,53.48,53.48,0,0,0-17.55-2.59H561.88v20.69h34.48a33.15,33.15,0,0,1,9.25,1.09,8.49,8.49,0,0,1,3,1.29,7.07,7.07,0,0,1,2.28,3.1,27.47,27.47,0,0,1,1.08,8.52V288.6a28.11,28.11,0,0,1-.93,7,7.78,7.78,0,0,1-3.44,4.44c-2.1,1.3-5.06,2-8.81,2H564.64a17.56,17.56,0,0,1-5.56-.86,5.85,5.85,0,0,1-3-3.07c-.87-1.73-1.31-4.48-1.31-8.18V168.46H534.06V289c0,9.42,2.36,17.08,7,22.75A28.14,28.14,0,0,0,551.92,320l.1,0a40.71,40.71,0,0,0,14.06,2.59h34a40.35,40.35,0,0,0,14-2.32A30.15,30.15,0,0,0,630.3,307.9l.06-.09a39.51,39.51,0,0,0,5.06-20V255.39A44.79,44.79,0,0,0,633.32,240.73Z"/><path class="cls-1" d="M358.62,230.92a29.88,29.88,0,0,0-13.79-9.81,53.46,53.46,0,0,0-17.54-2.59H292.07v20.69h34.48a33.2,33.2,0,0,1,9.25,1.09,8.34,8.34,0,0,1,3,1.29,7,7,0,0,1,2.29,3.1,27.81,27.81,0,0,1,1.07,8.52V288.6a29.77,29.77,0,0,1-.88,7A7.72,7.72,0,0,1,338,300a.85.85,0,0,1-.19.1l-.28.15a10.77,10.77,0,0,0-5,6.65,10.51,10.51,0,0,0,1.12,8.09,10.66,10.66,0,0,0,9.17,5.19,10.76,10.76,0,0,0,5-1.23c2.63-1.27,8.8-4.23,12.8-11.17a39.6,39.6,0,0,0,5.05-20V255.39a44.88,44.88,0,0,0-2.1-14.7A30.38,30.38,0,0,0,358.62,230.92Z"/><path class="cls-2" d="M108.71,146.46a12.94,12.94,0,0,0-9.46-2.76H56.42a64.12,64.12,0,0,1-14.18-1.47l-.13,0a26,26,0,0,1-7.78-2.82A17.66,17.66,0,0,1,27,131.1c-2.32-4.48-3.5-10.73-3.5-18.6V65.62a67.11,67.11,0,0,1,2.41-19.23A18.69,18.69,0,0,1,29.71,39c2.28-2.79,5-4.6,9.23-6.2,4.64-1.5,11-2.17,18.47-1.93H96.49a12.76,12.76,0,0,0,9.35-3,11.57,11.57,0,0,0,4.1-7.83,11.52,11.52,0,0,0-3.52-8.92A12.79,12.79,0,0,0,96.5,7.41H56.73c-9.47,0-16.47.71-22.68,2.31A49,49,0,0,0,19.25,16,42.18,42.18,0,0,0,4.42,35.46C1.41,43.2,0,52.18,0,63.73v51.61c0,9.18,1.54,17,4.68,23.71a37.48,37.48,0,0,0,9.33,13,46.59,46.59,0,0,0,20,10,94.66,94.66,0,0,0,21.58,2.37h43.7c.33,0,.67,0,1,0a12.69,12.69,0,0,0,9-3.71,10.05,10.05,0,0,0,3.11-7.72A9.83,9.83,0,0,0,108.71,146.46Z"/><path class="cls-2" d="M133.06,147.13a22.93,22.93,0,0,0,10.48,11.93,32.71,32.71,0,0,0,10.16,3.77,73.92,73.92,0,0,0,15.78,1.56h34.79V143.7H167.59a49.88,49.88,0,0,1-10-.86,10.25,10.25,0,0,1-2-.8l-.76-1.26a24.35,24.35,0,0,1-.61-5.28V59.33a12.15,12.15,0,0,0-10.34-11.27,11.63,11.63,0,0,0-8.59,2.63,12.39,12.39,0,0,0-4.53,8.61v76.37A38.28,38.28,0,0,0,133.06,147.13Z"/><path class="cls-2" d="M223,49.36a10.21,10.21,0,0,0-7.61,2.31,10.86,10.86,0,0,0-4,7.64V179c0,6.5-1.4,9.46-1.82,10.22l-.09.16c-.66,1.46-1.38,2.18-4,3.31a19.57,19.57,0,0,1-7.35,1.12H138.43a12.83,12.83,0,0,0-10.11,3.07,9,9,0,0,0,.1,14.46,12.85,12.85,0,0,0,10,2.93c13.71,0,22.92.08,30.33.15,4.79,0,8.74.08,12.53.08,2.21,0,4.33-.05,6.58-.11s4.84-.12,7.58-.12c9.23,0,16.15-1.56,21.71-4.89A27.23,27.23,0,0,0,230,193.83a42.93,42.93,0,0,0,2.12-13.36V59.34A10.69,10.69,0,0,0,223,49.36Z"/><path class="cls-2" d="M358.65,72.68l0,0a29.88,29.88,0,0,0-13.79-9.81,53.46,53.46,0,0,0-17.54-2.59H292.07V80.94h34.48A33.2,33.2,0,0,1,335.8,82a8.42,8.42,0,0,1,3,1.29,7,7,0,0,1,2.29,3.1,27.81,27.81,0,0,1,1.07,8.52v35.39a29.77,29.77,0,0,1-.88,7,7.72,7.72,0,0,1-3.28,4.43c-2,1.29-4.77,1.94-8.32,1.94H297.07a15.74,15.74,0,0,1-5.24-.85,5.74,5.74,0,0,1-2.86-3c-.83-1.74-1.25-4.5-1.25-8.21V10.19a11.85,11.85,0,0,0-23.47,0v154.2h66.06a40.45,40.45,0,0,0,14-2.32,30.19,30.19,0,0,0,16.21-12.44l.06-.09a39.6,39.6,0,0,0,5.05-20V97.12a44.7,44.7,0,0,0-2.09-14.65A30.43,30.43,0,0,0,358.65,72.68Z"/><path class="cls-2" d="M484.93,61.78c-5.36-2.94-11.78-4.31-20.18-4.31H433.14a46.87,46.87,0,0,0-15.61,2.41,29.26,29.26,0,0,0-16,13.93c-2.52,5.07-3.74,11.09-3.74,18.41v38a43.9,43.9,0,0,0,1.85,13.5,27.51,27.51,0,0,0,12.8,15.73c5.83,3.39,12.74,5,21.74,5,2.69,0,5.15.06,7.52.12s4.52.12,6.89.12c3.65,0,7.49,0,12.18-.08,7.47-.07,16.77-.16,30.81-.16h2a10.67,10.67,0,0,0,10.91-9.49c.47-5.78-4.48-11.26-10.91-11.2h-57.7a24.36,24.36,0,0,1-8-1.11c-2.8-1.18-3.66-2-4.59-3.48-.91-1.68-2-4.8-2-10.16V93.67a25.22,25.22,0,0,1,.65-6.22,8.69,8.69,0,0,1,3.05-4.34c1.12-.81,3.87-2.17,9.66-2.17h31.48a27.69,27.69,0,0,1,7.43.92c2.47.91,3,1.46,3.4,2.11a18.33,18.33,0,0,1,1.52,7.92V97a23.61,23.61,0,0,1-.63,5.1l0,.18a.63.63,0,0,1,0,.13l-.1.08-.27.24-.24.23-.12.21a4.52,4.52,0,0,1-1.86.68l-.19.05c-1.82.57-4.87.83-9.9.83H428.36v20.69h34.88a64.6,64.6,0,0,0,14.61-1.32,26.49,26.49,0,0,0,9.48-3.82A23.2,23.2,0,0,0,497,108.18a29,29,0,0,0,2.16-11.64V90.45c0-4.06-.19-8.78-1.6-13A27.13,27.13,0,0,0,484.93,61.78Z"/><path class="cls-2" d="M568.83,60.25a41.81,41.81,0,0,0-12.21,1.49A28.88,28.88,0,0,0,540,72.39c-4,5.68-6,12.52-6,20.89v71.11h20.69v-70a25,25,0,0,1,1.06-8.08,6.32,6.32,0,0,1,2.81-3.89A16.28,16.28,0,0,1,566,80.94h27.72V60.25Z"/></g></g></svg>