<svg xmlns="http://www.w3.org/2000/svg" viewBox="0 0 24 24"><defs><style>.cls-1{fill:#fff;}</style></defs><title>Home_btn</title><g id="Layer_2" data-name="Layer 2"><g id="Layer_1-2" data-name="Layer 1"><g id="Home_btn"><path class="cls-1" d="M23.6,10.82,20,6.93V2.42A1.44,1.44,0,0,0,18.58,1,1.3,1.3,0,0,0,17.3,2.42V4L14.5,1.07a3.44,3.44,0,0,0-5,0L.4,10.82a1.57,1.57,0,0,0,0,2.09,1.31,1.31,0,0,0,2,0l9.09-9.75a.79.79,0,0,1,1.12,0l9.09,9.75a1.32,1.32,0,0,0,2,0A1.57,1.57,0,0,0,23.6,10.82Z"/><path class="cls-1" d="M12.52,6a.65.65,0,0,0-1,0l-8,8.57a.73.73,0,0,0-.2.51v6.25A2.57,2.57,0,0,0,5.83,24h4V17.45h4.4V24h4a2.57,2.57,0,0,0,2.48-2.66V15.09a.73.73,0,0,0-.2-.51Z"/></g></g></g></svg>