<svg xmlns="http://www.w3.org/2000/svg" viewBox="0 0 29.95 29.95"><title>info_btn</title><g id="Layer_2" data-name="Layer 2"><g id="Layer_1-2" data-name="Layer 1"><g id="info_btn"><path d="M15,0A15,15,0,1,0,30,15,15,15,0,0,0,15,0ZM26.78,15A11.81,11.81,0,1,1,15,3.17,11.83,11.83,0,0,1,26.78,15Z"/><path d="M15,10.64a1.87,1.87,0,0,0,1.41-.54,1.84,1.84,0,0,0,.5-1.31,1.87,1.87,0,0,0-.49-1.3A1.81,1.81,0,0,0,15,6.93a1.78,1.78,0,0,0-1.42.56,1.9,1.9,0,0,0-.48,1.3,1.86,1.86,0,0,0,.49,1.3A1.82,1.82,0,0,0,15,10.64Z"/><rect x="13.27" y="12.02" width="3.36" height="11.01"/></g></g></g></svg>