<svg xmlns="http://www.w3.org/2000/svg" viewBox="0 0 280 120"><defs><style>.cls-1{fill:#0f6;}.cls-2{fill:#ed3533;}.cls-3{fill:#1cb9ff;}.cls-4{fill:#ffe42e;}.cls-5{fill:#5af9ff;}</style></defs><title>inunco_logo</title><g id="Layer_2" data-name="Layer 2"><g id="Layer_1-2" data-name="Layer 1"><path class="cls-1" d="M5.73,87.59h0a5.86,5.86,0,0,0,5.73-6V61.2a5.87,5.87,0,0,0-5.73-6h0A5.88,5.88,0,0,0,0,61.2V81.6A5.87,5.87,0,0,0,5.73,87.59Z"/><path class="cls-1" d="M5.73,45.6h0a5.86,5.86,0,0,0,5.73-6h0a5.86,5.86,0,0,0-5.73-6h0a5.87,5.87,0,0,0-5.73,6H0A5.87,5.87,0,0,0,5.73,45.6Z"/><path class="cls-2" d="M153.6,48.58c0,4.28-4.82,6.19-7.26,2.88l-11.77-16h0c-2.4-3.43-7.33-1.55-7.33,2.79v76.61a5.4,5.4,0,0,0,1.34,3.61h0c2.89,3.21,7.83.93,7.83-3.61V64.76c0-4.27,4.82-6.19,7.26-2.89l11.83,16,.05.06c2.46,3.25,7.22,1.31,7.22-2.93V5.11a5.4,5.4,0,0,0-1.34-3.61h0c-2.89-3.21-7.83-.93-7.83,3.61Z"/><path class="cls-2" d="M50.44,48.58c0,4.28-4.83,6.19-7.27,2.88l-11.77-16h0c-2.39-3.43-7.33-1.55-7.33,2.79v76.61a5.41,5.41,0,0,0,1.35,3.61h0c2.88,3.21,7.82.93,7.82-3.61V64.76c0-4.27,4.82-6.19,7.26-2.89l11.83,16,.05.06c2.46,3.25,7.23,1.31,7.23-2.93V5.11A5.41,5.41,0,0,0,58.26,1.5h0c-2.88-3.21-7.82-.93-7.82,3.61Z"/><path class="cls-3" d="M103.17,62.75c0,10-3.77,14.19-10.32,14.19S82.53,72.79,82.53,62.75V39a5.28,5.28,0,0,0-5.16-5.4h0A5.28,5.28,0,0,0,72.22,39V63.2c0,15.56,7.89,24.16,21.2,24.16s21.21-8.6,21.21-24.16V39.61a5.87,5.87,0,0,0-5.73-6h0a5.86,5.86,0,0,0-5.73,6Z"/><path class="cls-4" d="M202.5,44a14.72,14.72,0,0,1,9.26,3.15,4.81,4.81,0,0,0,6.39-.41h0a5.41,5.41,0,0,0-.52-8.1,25.61,25.61,0,0,0-15.69-4.92c-15.16,0-26.44,11.25-26.44,27s11.28,26.95,26.37,26.95a25.5,25.5,0,0,0,15.81-5,5.43,5.43,0,0,0,.5-8.09h0a4.82,4.82,0,0,0-6.42-.38,14.57,14.57,0,0,1-9.26,3.18c-9.11,0-15.59-6.85-15.59-16.68S193.39,44,202.5,44Z"/><path class="cls-5" d="M253.35,33.83c-15.38,0-26.65,11.43-26.65,26.88S238,87.59,253.35,87.59,280,76.23,280,60.71,268.66,33.83,253.35,33.83Zm0,43.51c-8.7,0-15.24-6.76-15.24-16.63s6.54-16.63,15.24-16.63,15.24,6.75,15.24,16.63S262.05,77.34,253.35,77.34Z"/></g></g></svg>