<svg xmlns="http://www.w3.org/2000/svg" viewBox="0 0 30 29.73"><title>library_logo</title><g id="Layer_2" data-name="Layer 2"><g id="Layer_1-2" data-name="Layer 1" style="fill: #fff"><path d="M17,14.07a.5.5,0,0,0,.44.27.59.59,0,0,0,.23-.05,41.56,41.56,0,0,1,4.41-2,.49.49,0,0,0,.32-.62.5.5,0,0,0-.62-.33,43.8,43.8,0,0,0-4.56,2A.49.49,0,0,0,17,14.07Z"/><path d="M17.46,8.36a.59.59,0,0,0,.23,0,41.56,41.56,0,0,1,4.41-2,.49.49,0,0,0,.32-.62.5.5,0,0,0-.62-.33,43.8,43.8,0,0,0-4.56,2,.49.49,0,0,0-.22.67A.5.5,0,0,0,17.46,8.36Z"/><path d="M29.42,7.36c-.27,0-.5.23-.37.5V27.3c-.13.82-1.62,1.48-1.62,1.48H15.48V27.63a14.28,14.28,0,0,1,4.45-.85,25.47,25.47,0,0,1,7.28,1,.47.47,0,0,0,.44-.07.49.49,0,0,0,.21-.4V5.36a.48.48,0,0,0-.38-.46l-1-.2a.5.5,0,0,0-.57.31.47.47,0,0,0,.36.62l.6.12V26.63A28.33,28.33,0,0,0,20,25.81a15.62,15.62,0,0,0-4.94,1,11.56,11.56,0,0,0-4.48-1,33.08,33.08,0,0,0-7.44.85V5.75a32.92,32.92,0,0,1,7.45-.88,10.85,10.85,0,0,1,4,.82V25.31a.49.49,0,0,0,.26.43.47.47,0,0,0,.5,0,57.83,57.83,0,0,1,9.38-4.44.51.51,0,0,0,.34-.47V.48a.49.49,0,0,0-.21-.4.5.5,0,0,0-.43,0,51.55,51.55,0,0,0-7.71,3.85.48.48,0,1,0,.51.81,51,51,0,0,1,6.89-3.52V20.44a57.12,57.12,0,0,0-8.57,4V5.36a.51.51,0,0,0-.28-.44,11.44,11.44,0,0,0-4.66-1,32.16,32.16,0,0,0-8,1,.49.49,0,0,0-.36.47V27.28a.52.52,0,0,0,.2.4.54.54,0,0,0,.3.1l.13,0a31.59,31.59,0,0,1,7.79-1,10.73,10.73,0,0,1,4,.82v1.18h-12S1,28.12,1,27.3V7.86a.42.42,0,0,0-.43-.5.53.53,0,0,0-.52.5V27.3c0,1.37,2.51,2.43,2.51,2.43H27.43S29.92,28.67,30,27.3V7.86A.65.65,0,0,0,29.42,7.36Z"/><path d="M17,11.08a.5.5,0,0,0,.44.27.59.59,0,0,0,.23,0,41.56,41.56,0,0,1,4.41-2,.49.49,0,0,0,.32-.62.5.5,0,0,0-.62-.33,43.8,43.8,0,0,0-4.56,2A.49.49,0,0,0,17,11.08Z"/><path d="M17,17.06a.5.5,0,0,0,.44.27.59.59,0,0,0,.23,0,41.56,41.56,0,0,1,4.41-2,.49.49,0,0,0,.32-.62.5.5,0,0,0-.62-.33,43.8,43.8,0,0,0-4.56,2A.49.49,0,0,0,17,17.06Z"/><path d="M12.09,9.14a15.91,15.91,0,0,0-6.72.23A.51.51,0,0,0,5,10a.49.49,0,0,0,.48.37h.13a14.93,14.93,0,0,1,6.24-.23.5.5,0,0,0,.59-.37A.49.49,0,0,0,12.09,9.14Z"/><path d="M12.09,12.13a16.09,16.09,0,0,0-6.72.23A.52.52,0,0,0,5,13a.49.49,0,0,0,.48.36h.13a14.93,14.93,0,0,1,6.24-.23.5.5,0,0,0,.59-.37A.49.49,0,0,0,12.09,12.13Z"/><path d="M17,20.05a.5.5,0,0,0,.44.27.59.59,0,0,0,.23-.05,40.07,40.07,0,0,1,4.41-2,.5.5,0,0,0-.3-1,43.8,43.8,0,0,0-4.56,2A.49.49,0,0,0,17,20.05Z"/><path d="M12.09,15.12a15.91,15.91,0,0,0-6.72.23A.52.52,0,0,0,5,16a.5.5,0,0,0,.48.37l.13,0a14.93,14.93,0,0,1,6.24-.23.5.5,0,0,0,.59-.37A.49.49,0,0,0,12.09,15.12Z"/><path d="M12.09,21.1a15.83,15.83,0,0,0-6.72.24.5.5,0,0,0,.13,1l.13,0a14.93,14.93,0,0,1,6.24-.23.5.5,0,0,0,.59-.37A.49.49,0,0,0,12.09,21.1Z"/><path d="M12.09,18.11a15.83,15.83,0,0,0-6.72.24.5.5,0,0,0,.13,1l.13,0a14.93,14.93,0,0,1,6.24-.23.5.5,0,0,0,.59-.37A.49.49,0,0,0,12.09,18.11Z"/></g></g></svg>