<svg xmlns="http://www.w3.org/2000/svg" viewBox="0 0 16.36 20">
  <defs>
    <style>
      .cls-1 {
        fill: #fff;
      }
    </style>
  </defs>
  <title>myAccount</title>
  <g id="Layer_2" data-name="Layer 2">
    <g id="Layer_1-2" data-name="Layer 1">
      <g>
        <path class="cls-1" d="M16,3.35a10.11,10.11,0,0,1-5.67-1.59A6.8,6.8,0,0,1,8.52.18.42.42,0,0,0,8.18,0h0a.43.43,0,0,0-.34.18A7,7,0,0,1,6.08,1.76,10.11,10.11,0,0,1,.41,3.35a.4.4,0,0,0-.41.4V9.93H0a9,9,0,0,0,1.2,5c1.15,1.8,3.32,3.39,6.81,5a.38.38,0,0,0,.34,0c3.49-1.6,5.66-3.19,6.81-5a9,9,0,0,0,1.2-5h0V3.75A.4.4,0,0,0,16,3.35Zm-.41,6.57a8.14,8.14,0,0,1-1.07,4.61c-1.05,1.64-3.05,3.1-6.29,4.61-3.24-1.51-5.24-3-6.29-4.61A8.14,8.14,0,0,1,.82,9.92V4.16A10.9,10.9,0,0,0,6.57,2.42,8.27,8.27,0,0,0,8.18,1.05,8.27,8.27,0,0,0,9.79,2.42a10.9,10.9,0,0,0,5.75,1.74V9.92Z"/>
        <path class="cls-1" d="M6.32,3.87a.4.4,0,0,0-.55-.17A11.4,11.4,0,0,1,2.06,4.84a.41.41,0,0,0-.35.46.41.41,0,0,0,.41.35h0a12.18,12.18,0,0,0,4-1.23A.4.4,0,0,0,6.32,3.87Z"/>
        <path class="cls-1" d="M7.58,3A.41.41,0,0,0,7,2.93L6.86,3a.4.4,0,0,0-.1.57.42.42,0,0,0,.33.17.35.35,0,0,0,.24-.08.91.91,0,0,0,.16-.11A.41.41,0,0,0,7.58,3Z"/>
        <path class="cls-1" d="M8.18,4.84a5.31,5.31,0,1,0,5.32,5.3A5.31,5.31,0,0,0,8.18,4.84Zm0,9.79a4.53,4.53,0,0,1-3.54-1.71,5.22,5.22,0,0,1,2.9-1.3.41.41,0,0,0,.36-.36.41.41,0,0,0-.27-.43,1.69,1.69,0,1,1,1.1,0,.41.41,0,0,0-.27.43.41.41,0,0,0,.36.36,5.22,5.22,0,0,1,2.9,1.3A4.53,4.53,0,0,1,8.18,14.63ZM9.94,11a2.51,2.51,0,1,0-3.52,0,5.84,5.84,0,0,0-2.23,1.21,4.43,4.43,0,0,1-.51-2.09,4.5,4.5,0,0,1,9,0,4.43,4.43,0,0,1-.51,2.09A5.84,5.84,0,0,0,9.94,11Z"/>
      </g>
    </g>
  </g>
</svg>
