<svg xmlns="http://www.w3.org/2000/svg" viewBox="0 0 26.13 29.84"><defs><style>.cls-1{fill:#e2e7ea;}.cls-2{fill:#b1b7bd;}.cls-3{fill:#f05643;}.cls-4{fill:#cbd1d9;}.cls-5{fill:#fff;}</style></defs><title>pdf_logo</title><g id="Layer_2" data-name="Layer 2"><g id="Layer_1-2" data-name="Layer 1"><path class="cls-1" d="M26.13,7.45V28a1.9,1.9,0,0,1-1.9,1.89H5.6A1.9,1.9,0,0,1,3.7,28V1.9A1.9,1.9,0,0,1,5.6,0H18.67Z"/><path class="cls-2" d="M26.13,7.45H20.56a1.89,1.89,0,0,1-1.89-1.89V0Z"/><rect class="cls-3" y="13.98" width="22.32" height="11.19" rx="0.97" ry="0.97"/><polygon class="cls-4" points="20.56 7.45 26.11 13.03 26.13 7.45 20.56 7.45"/><path class="cls-5" d="M6,20.13H5v1.55a.73.73,0,0,1-.16.5.49.49,0,0,1-.39.17.52.52,0,0,1-.41-.17.72.72,0,0,1-.15-.49V17.48A.67.67,0,0,1,4.07,17a.73.73,0,0,1,.53-.16H6a3.5,3.5,0,0,1,1,.1,1.53,1.53,0,0,1,.58.3,1.64,1.64,0,0,1,.37.53,2,2,0,0,1,.12.71,1.55,1.55,0,0,1-.51,1.26A2.31,2.31,0,0,1,6,20.13Zm-.27-2.5H5V19.3h.74a2.48,2.48,0,0,0,.66-.08.89.89,0,0,0,.4-.27,1,1,0,0,0-.08-1.08A1.42,1.42,0,0,0,5.75,17.63Z"/><path class="cls-5" d="M9.67,16.8h1.45a3.88,3.88,0,0,1,1,.1,1.79,1.79,0,0,1,.73.39,2.77,2.77,0,0,1,.85,2.22,4.94,4.94,0,0,1-.08.9,2.63,2.63,0,0,1-.27.73,2.19,2.19,0,0,1-.46.59,1.72,1.72,0,0,1-.48.31,2,2,0,0,1-.56.17,4.47,4.47,0,0,1-.67.05H9.7a.91.91,0,0,1-.46-.09.43.43,0,0,1-.2-.26,1.69,1.69,0,0,1,0-.43v-4A.7.7,0,0,1,9.16,17,.68.68,0,0,1,9.67,16.8Zm.43.87v3.71h1.27a1.44,1.44,0,0,0,.33-.08.85.85,0,0,0,.29-.17,2,2,0,0,0,.55-1.61,2.39,2.39,0,0,0-.24-1.21,1.18,1.18,0,0,0-.6-.52,3.12,3.12,0,0,0-.87-.11Z"/><path class="cls-5" d="M17.9,17.65H15.72v1.4h1.82a.59.59,0,0,1,.38.11.41.41,0,0,1,.12.31.41.41,0,0,1-.12.3.59.59,0,0,1-.38.11H15.72v1.8a.69.69,0,0,1-.16.51.5.5,0,0,1-.39.16.48.48,0,0,1-.4-.17.68.68,0,0,1-.16-.5v-4.2a1,1,0,0,1,.07-.39.43.43,0,0,1,.22-.22.91.91,0,0,1,.39-.07H17.9a.57.57,0,0,1,.39.12.37.37,0,0,1,.13.3.37.37,0,0,1-.13.31A.57.57,0,0,1,17.9,17.65Z"/></g></g></svg>