<svg xmlns="http://www.w3.org/2000/svg" viewBox="0 0 16.28 21.73">
  <defs>
    <style>
      .cls-1 {
        fill: #fff;
      }
    </style>
  </defs>
  <title>personalNotice</title>
  <g id="Layer_2" data-name="Layer 2">
    <g id="Layer_1-2" data-name="Layer 1">
      <g id="surface1">
        <path class="cls-1" d="M15.69,11.94a2,2,0,0,0-1.41-.58,2,2,0,0,0-1.42.58l-1.44,1.45a3.29,3.29,0,0,0-2-3l.69-.69h1.78a2.34,2.34,0,0,0,2.34-2.34v-5A2.34,2.34,0,0,0,11.89,0H4.39A2.34,2.34,0,0,0,2.05,2.34v5A2.34,2.34,0,0,0,4.39,9.7H6.17l.69.69a3.29,3.29,0,0,0-2,3L3.42,11.94A2,2,0,0,0,2,11.36a2,2,0,0,0-1.41.58,2,2,0,0,0,0,2.83L4.77,19v2.13a.64.64,0,0,0,.64.64h5.46a.64.64,0,0,0,.64-.64V19l4.18-4.19a2,2,0,0,0,0-2.83ZM4.39,8.42A1.06,1.06,0,0,1,3.32,7.36v-5A1.07,1.07,0,0,1,4.39,1.27h7.5A1.07,1.07,0,0,1,13,2.34v5a1.06,1.06,0,0,1-1.07,1.06h-2a.66.66,0,0,0-.46.19L8.14,9.87,6.89,8.61a.66.66,0,0,0-.46-.19Zm3.75,3a2,2,0,1,1-2,2A2,2,0,0,1,8.14,11.4Zm6.65,2.47-4.37,4.38a.62.62,0,0,0-.19.45v1.76H6.05V18.7a.62.62,0,0,0-.19-.45L1.49,13.87a.71.71,0,0,1,0-1A.74.74,0,0,1,2,12.63a.76.76,0,0,1,.52.21L6.17,16.5a.63.63,0,0,0,.45.18h3a.63.63,0,0,0,.45-.18l3.65-3.66a.76.76,0,0,1,.52-.21.74.74,0,0,1,.51.21.71.71,0,0,1,0,1Z"/>
        <path class="cls-1" d="M7.54,6.69A.63.63,0,0,0,8,6.5L10.4,4.09a.64.64,0,0,0-.9-.9l-2,2L6.78,4.4a.64.64,0,1,0-.9.9L7.09,6.5A.6.6,0,0,0,7.54,6.69Z"/>
      </g>
    </g>
  </g>
</svg>
