<svg xmlns="http://www.w3.org/2000/svg" viewBox="0 0 30 29.94"><title>Teacher_btn</title><g id="Layer_2" data-name="Layer 2"><g id="Layer_1-2" data-name="Layer 1"><g id="Teacher_btn"><path d="M15,0a5.29,5.29,0,1,0,5.26,5.31A5.31,5.31,0,0,0,15,0Z"/><path d="M16.78,10.46H13.27a7.88,7.88,0,0,0-3.51.86A21.9,21.9,0,0,1,15,13.5a22.14,22.14,0,0,1,5.27-2.18A7.88,7.88,0,0,0,16.78,10.46Z"/><path d="M26.43,17.58v3.5a1.81,1.81,0,0,0,1.37,1.78A1.79,1.79,0,0,0,30,21.12V17.55a1.79,1.79,0,1,0-3.57,0Z"/><path d="M0,17.58v3.5a1.81,1.81,0,0,0,1.37,1.78,1.79,1.79,0,0,0,2.2-1.74V17.55a1.79,1.79,0,1,0-3.57,0Z"/><path d="M2.78,12.28a.88.88,0,0,0-.88.88V14a3.59,3.59,0,0,1,3.58,3.58v3.57A3.58,3.58,0,0,1,1.9,24.69v.8a.88.88,0,0,0,.89.87,20.76,20.76,0,0,1,11.5,3.58V15.13A22.3,22.3,0,0,0,2.78,12.28Z"/><path d="M28.33,14v-.81a.87.87,0,0,0-.87-.88A22.3,22.3,0,0,0,16,15.13V29.94a20.76,20.76,0,0,1,11.5-3.58.87.87,0,0,0,.88-.87v-.8a3.57,3.57,0,0,1-3.57-3.57V17.55A3.58,3.58,0,0,1,28.33,14Z"/></g></g></g></svg>