<svg xmlns="http://www.w3.org/2000/svg" viewBox="0 0 30 30"><title>time_btn</title><g id="Layer_2" data-name="Layer 2"><g id="Layer_1-2" data-name="Layer 1"><g id="time_btn"><path d="M15,0A15,15,0,1,0,30,15,15,15,0,0,0,15,0Zm1,17s0,.08,0,.12,0,.06,0,.09a.32.32,0,0,1,0,.09.56.56,0,0,1,0,.12v0l-.08.14h0a.76.76,0,0,1-.11.14l0,0a.52.52,0,0,1-.11.1l0,0-.16.08,0,0-.14,0h0l-.2,0h0l-.18,0-.05,0L14.51,18h0l-6-2.81a1.07,1.07,0,0,1-.31-1.73,1,1,0,0,1,1.23-.21l4.42,2.08V6a1.06,1.06,0,0,1,.72-1A1.07,1.07,0,0,1,16,6V17h0Z"/></g></g></g></svg>