<svg xmlns="http://www.w3.org/2000/svg" viewBox="0 0 76.7 60"><title>guardians_logo</title><g id="Layer_2" data-name="Layer 2"><g id="Layer_1-2" data-name="Layer 1" style="fill: #f4c20d"><path d="M32.41,1.75A13.7,13.7,0,0,0,25.74,0h-.21a13.77,13.77,0,0,0-6.67,1.7C16.26,3.17,13.09,6.34,12.78,13c-.09.88-.88,10.11,3.89,15.49a11.39,11.39,0,0,0,8.73,3.78h.39a11.43,11.43,0,0,0,8.74-3.78c4.78-5.38,4-14.61,3.9-15.49C38.12,6.38,35,3.22,32.41,1.75Zm2.7,11.85c0,.09.88,8.52-3.07,13a8.14,8.14,0,0,1-6.38,2.66h-.13a8.11,8.11,0,0,1-6.37-2.66c-3.93-4.41-3.09-12.89-3.08-13s0-.07,0-.1c.41-8.89,6.73-9.85,9.43-9.85h.15c3.35.08,9,1.44,9.43,9.85A.31.31,0,0,0,35.11,13.6Z"/><path d="M49.93,53.19a19.7,19.7,0,0,0,.59-5.56v0c0-.1,0-.2,0-.31-.07-2.43-.23-8.13-5.57-10l-.13,0a35.11,35.11,0,0,1-10.2-4.65,1.66,1.66,0,1,0-1.91,2.72,38,38,0,0,0,11.23,5.13c2.87,1,3.19,4.08,3.27,6.89,0,.11,0,.21,0,.31a22.33,22.33,0,0,1-.25,3.8c-2,1.13-9.81,5-21.69,5S5.58,52.61,3.57,51.48a21.39,21.39,0,0,1-.26-3.81c0-.09,0-.19,0-.3.09-2.81.41-5.87,3.28-6.89a39.08,39.08,0,0,0,11.23-5.13,1.66,1.66,0,0,0-1.91-2.72A34.93,34.93,0,0,1,5.71,37.28l-.12,0C.25,39.15.09,44.85,0,47.27a1.56,1.56,0,0,1,0,.31v0a19.08,19.08,0,0,0,.63,5.58,1.56,1.56,0,0,0,.64.77c.37.25,9.21,5.88,24,5.88s23.64-5.65,24-5.88A1.56,1.56,0,0,0,49.93,53.19Z"/><path d="M45.34,32.7A30.64,30.64,0,0,1,41.79,35l5.27.45a1.79,1.79,0,0,0,.36-2.32A1.4,1.4,0,0,0,45.34,32.7Z"/><path d="M76.7,47.71c0-.1,0-.2,0-.31-.06-2.44-.21-8.16-5-10l-.11,0a30.54,30.54,0,0,1-9.19-4.67,1.41,1.41,0,0,0-2.09.41,1.79,1.79,0,0,0,.37,2.32,33.1,33.1,0,0,0,10.12,5.15c2.58,1,2.87,4.09,2.94,6.91,0,.11,0,.21,0,.31a23.5,23.5,0,0,1-.23,3.81c-1.79,1.14-8.83,5.06-19.54,5.06a41.26,41.26,0,0,1-6.33-.48l-3.68,2.68A44.76,44.76,0,0,0,54,60c13.33,0,21.29-5.66,21.63-5.9a1.63,1.63,0,0,0,.57-.78,21.82,21.82,0,0,0,.54-5.57Z"/><path d="M65.42,17a10.77,10.77,0,0,0-2.76-6.87A10.2,10.2,0,0,0,59,6.82V6.57c-.08-3.36-2.59-6-5.62-6S48,3.46,48.09,6.82v0c-5.52,2.24-5.74,7.5-6.3,12.94l.45-.05c.07,2.75.69,7.11,3.59,10.06a10.85,10.85,0,0,0,7.87,3.07h.36a10.89,10.89,0,0,0,7.88-3.07c3.13-3.18,3.6-8,3.6-10.69l.19,0A19.43,19.43,0,0,0,65.42,17ZM59.68,27.68a7.73,7.73,0,0,1-5.74,2.14h-.12a7.72,7.72,0,0,1-5.73-2.14c-2.32-2.35-2.79-6.11-2.84-8.43,7-1.5,8.71-4.57,8.71-4.57a12.87,12.87,0,0,0,8.55,4.44C62.49,21.43,62.05,25.27,59.68,27.68Z"/></g></g></svg>