<?xml version="1.0" encoding="utf-8"?>
<!-- Generator: Adobe Illustrator 19.0.0, SVG Export Plug-In . SVG Version: 6.00 Build 0)  -->
<svg version="1.1" id="Layer_1" xmlns="http://www.w3.org/2000/svg" xmlns:xlink="http://www.w3.org/1999/xlink" x="0px" y="0px"
	 viewBox="0 0 190 150" style="enable-background:new 0 0 190 150;" xml:space="preserve">
<style type="text/css">
	.st0{fill:#F2C21A;}
</style>
<g id="Layer_2">
	<g id="Layer_1-2">
		<path id="XMLID_6_" class="st0" d="M81.8,11.3c-4.6-2.6-9.7-4-15-4h-0.5c-5.2,0-10.4,1.3-14.9,3.9c-5.8,3.4-12.9,10.6-13.6,25.9
			c-0.2,2-2,23.1,8.7,35.5c5,5.6,12.1,8.8,19.5,8.7h0.9c7.4,0.2,14.6-3,19.6-8.7c10.7-12.3,9-33.4,8.7-35.5
			C94.5,21.9,87.6,14.7,81.8,11.3z M87.8,38.5c0,0.2,2,19.5-6.9,29.8c-3.6,4.1-8.9,6.3-14.3,6.1h-0.3c-5.4,0.2-10.6-1.9-14.3-6.1
			c-8.8-10.1-6.9-29.5-6.9-29.8c0-0.2,0-0.2,0-0.2c1-20.4,15.2-22.6,21.2-22.6h0.3c7.5,0.2,20.1,3.3,21.1,22.6
			C87.8,38.3,87.8,38.4,87.8,38.5z"/>
		<path id="XMLID_5_" class="st0" d="M121,129.1c1-4.2,1.5-8.5,1.3-12.7l0,0c0-0.2,0-0.4,0-0.7c-0.2-5.5-0.5-18.6-12.5-22.9h-0.3
			c-8.1-2.2-15.8-5.8-22.8-10.6c-1.7-1.2-4-0.8-5.2,0.9c-1.2,1.7-0.8,4.1,0.9,5.3c7.7,5.3,16.2,9.3,25.1,11.8
			c6.4,2.2,7.1,9.3,7.3,15.7c0,0.2,0,0.5,0,0.7c0.1,2.9-0.1,5.8-0.6,8.7c-4.5,2.6-22,11.5-48.6,11.5s-44.1-9-48.6-11.6
			c-0.4-2.9-0.6-5.8-0.6-8.7c0-0.2,0-0.4,0-0.7c0.2-6.4,0.9-13.4,7.3-15.7c8.9-2.6,17.4-6.4,25.1-11.8c1.7-1.2,2.1-3.6,0.9-5.3
			c-1.2-1.7-3.5-2.1-5.2-0.9c-7,4.8-14.7,8.4-22.8,10.6h-0.3C9.4,97,9.1,110,8.9,115.6c0,0.2,0,0.5,0,0.7l0,0
			c-0.1,4.3,0.3,8.6,1.4,12.8c0.3,0.7,0.8,1.3,1.4,1.7c0.8,0.6,20.6,13.5,53.7,13.5s52.9-12.9,53.7-13.5
			C120.2,130.4,120.7,129.8,121,129.1z"/>
		<path id="XMLID_4_" class="st0" d="M110.7,82.2c-2.5,1.9-5.2,3.7-7.9,5.2l11.8,1c1.5-1.3,1.9-3.6,0.8-5.3
			c-0.8-1.5-2.7-2.1-4.3-1.2C111,82.1,110.8,82.1,110.7,82.2z"/>
		<path id="XMLID_3_" class="st0" d="M180.9,116.5c0-0.2,0-0.4,0-0.7c-0.1-5.6-0.5-18.7-11.2-22.9h-0.2c-7.4-2.2-14.4-5.9-20.6-10.6
			c-1.4-1.1-3.4-0.8-4.4,0.5c-0.1,0.1-0.2,0.2-0.2,0.4c-1.1,1.7-0.7,4,0.8,5.3c6.8,5.2,14.5,9.2,22.7,11.8c5.8,2.2,6.4,9.4,6.6,15.8
			c0,0.2,0,0.5,0,0.7c0.1,3-0.1,5.8-0.5,8.7c-4,2.7-19.8,11.6-43.7,11.6c-4.7,0-9.5-0.4-14.2-1.1l-8.2,6.1
			c7.4,1.7,14.9,2.6,22.5,2.6c29.8,0,47.7-13,48.4-13.5c0.6-0.4,1-1,1.3-1.7C180.7,125.2,181.1,120.9,180.9,116.5L180.9,116.5z"/>
		<path id="XMLID_2_" class="st0" d="M155.7,46.3c-0.2-5.8-2.4-11.3-6.2-15.7c-2.1-3.2-4.9-5.7-8.2-7.6v-0.6
			c-0.2-7.7-5.8-13.7-12.6-13.7s-12,6.6-11.8,14.3l0,0c-12.4,5.1-12.9,17.2-14.1,29.7l1-0.1c0.2,6.3,1.5,16.3,8,23
			c4.7,4.7,11.1,7.3,17.6,7.1h0.8c6.6,0.2,12.9-2.4,17.6-7.1c7-7.3,8.1-18.3,8.1-24.4h0.4C156.2,49.5,156,47.8,155.7,46.3z
			 M142.8,70.7c-3.4,3.4-8.1,5.1-12.9,4.9h-0.3c-4.8,0.2-9.4-1.5-12.8-4.9c-5.2-5.4-6.2-14-6.4-19.3c15.7-3.5,19.5-10.4,19.5-10.4
			c4.9,5.8,11.7,9.4,19.1,10.1C149.1,56.4,148.1,65.2,142.8,70.7z"/>
	</g>
</g>
</svg>
