<?xml version="1.0" encoding="utf-8"?>
<!-- Generator: Adobe Illustrator 19.0.0, SVG Export Plug-In . SVG Version: 6.00 Build 0)  -->
<svg version="1.1" id="Layer_1" xmlns="http://www.w3.org/2000/svg" xmlns:xlink="http://www.w3.org/1999/xlink" x="0px" y="0px"
	 viewBox="0 0 190 150" style="enable-background:new 0 0 190 150;" xml:space="preserve">
<style type="text/css">
	.st0{fill:#DB3436;}
</style>
<g id="Layer_2_1_">
	<g id="Layer_1-2_1_">
		<path id="XMLID_8_" class="st0" d="M109.9,11.3c-4.5-2.5-9.5-4-14.6-4h-0.5c-5.1,0-10.2,1.3-14.6,3.9
			c-5.7,3.3-12.7,10.5-13.4,25.7c-0.2,2-1.9,22.9,8.5,35.1c4.8,5.6,11.8,8.8,19.2,8.6h0.8c7.4,0.2,14.4-3,19.3-8.6
			c10.5-12.2,8.7-33.1,8.6-35.1C122.4,21.9,115.5,14.7,109.9,11.3z M116.3,37.4c0,0.2,2,19.8-6.9,30.1c-3.6,4.2-8.9,6.5-14.4,6.3
			h-0.3c-5.5,0.2-10.7-2-14.3-6.2c-8.8-10.2-6.9-29.9-6.9-30.1c0-0.2,0-0.2,0-0.2c0.9-20.7,15.2-22.9,21.3-22.9h0.3
			c7.6,0.2,20.3,3.3,21.2,22.9C116.3,37.2,116.3,37.3,116.3,37.4z"/>
		<path id="XMLID_7_" class="st0" d="M150.7,116.5L150.7,116.5c0-0.2,0-0.5,0-0.7c-0.2-5.6-0.5-18.8-12.4-22.9H138
			c-8.1-2.3-15.8-5.9-22.8-10.7c-1.6-1.2-3.9-0.9-5.1,0.7c-1.2,1.7-0.8,4.1,0.9,5.4c7.6,5.3,16.1,9.3,25,11.9
			c6.4,2.3,7.1,9.4,7.3,15.9c0,0.2,0,0.5,0,0.7c0.1,2.9-0.1,5.9-0.6,8.7c-4.5,2.6-21.9,11.7-48.4,11.7s-43.9-9-48.4-11.7
			c-0.4-2.9-0.6-5.8-0.6-8.7c0-0.2,0-0.5,0-0.7c0.2-6.5,0.9-13.6,7.3-16c8.9-2.5,17.4-6.5,25.1-11.9c1.6-1.2,2-3.4,0.9-5.2
			c-1.1-1.7-3.4-2.1-5.1-1c0,0,0,0-0.1,0c-7,4.8-14.7,8.4-22.8,10.6h-0.3c-11.9,4.4-12.3,17.4-12.5,23c0,0.2,0,0.5,0,0.7l0,0
			c-0.1,4.4,0.3,8.6,1.4,12.9c0.3,0.7,0.8,1.3,1.4,1.8c0.8,0.7,20.6,13.7,53.6,13.7s52.8-13,53.6-13.6c0.6-0.4,1.1-1,1.4-1.8
			C150.4,125.1,150.9,120.8,150.7,116.5z"/>
	</g>
</g>
</svg>
