<svg xmlns="http://www.w3.org/2000/svg" viewBox="0 0 20 20">
  <defs>
    <style>
      .cls-1 {
        fill: #aaa;
      }
    </style>
  </defs>
  <title>generalNotice</title>
  <g id="Layer_2" data-name="Layer 2">
    <g id="Layer_1-2" data-name="Layer 1">
      <g>
        <path class="cls-1" d="M17.07,2.93A9.94,9.94,0,0,0,10,0c-.35,0-.69,0-1,.05A10,10,0,0,0,0,10a9.89,9.89,0,0,0,2.53,6.64L.17,19a.59.59,0,0,0,0,.83A.63.63,0,0,0,.59,20,.58.58,0,0,0,1,19.83l2.36-2.36a10,10,0,0,0,13.71-.4,10,10,0,0,0,0-14.14ZM10,18.83A8.83,8.83,0,1,1,18.83,10,8.84,8.84,0,0,1,10,18.83Z"/>
        <path class="cls-1" d="M10,5a.59.59,0,0,0-.59.59v5a.59.59,0,0,0,1.18,0v-5A.59.59,0,0,0,10,5Z"/>
        <circle class="cls-1" cx="10" cy="14.39" r="0.59"/>
      </g>
    </g>
  </g>
</svg>
