<svg xmlns="http://www.w3.org/2000/svg" viewBox="0 0 16 19">
  <defs>
    <style>
      .cls-1 {
        fill: #010101;
      }
    </style>
  </defs>
  <title>notification</title>
  <g id="Layer_2" data-name="Layer 2">
    <g id="Layer_1-2" data-name="Layer 1">
      <g>
        <path class="cls-1" d="M15.94,16l-1.37-2.27a6.72,6.72,0,0,1-1-3.46v-2A5.57,5.57,0,0,0,9.6,3V1.58a1.6,1.6,0,0,0-3.2,0V3a5.57,5.57,0,0,0-4,5.31v2a6.72,6.72,0,0,1-1,3.46L.06,16a.38.38,0,0,0,0,.4.4.4,0,0,0,.35.21H15.6a.4.4,0,0,0,.35-.21A.37.37,0,0,0,15.94,16Z"/>
        <path class="cls-1" d="M5.48,17.42a2.8,2.8,0,0,0,5,0Z"/>
      </g>
    </g>
  </g>
</svg>
