<svg xmlns="http://www.w3.org/2000/svg" viewBox="0 0 24.32 30"><title>notice_board_logo</title><g id="Layer_2" data-name="Layer 2"><g id="Layer_1-2" data-name="Layer 1"><path d="M23.42,2.91H14.14l1.28-1.38A.9.9,0,1,0,14.12.29l-2,2.19-2-2.16A.93.93,0,0,0,8.89.14a.9.9,0,0,0-.18,1.38L10,2.91H.9a.9.9,0,0,0-.9.9V20.37a.9.9,0,0,0,.9.9h9.49L5.51,28.6a.89.89,0,0,0,.25,1.25A.91.91,0,0,0,7,29.6L12.07,22l5.07,7.61a.88.88,0,0,0,.75.4.91.91,0,0,0,.73-1.43l-4.86-7.3h9.66a.9.9,0,0,0,.9-.9V3.81A.9.9,0,0,0,23.42,2.91Zm-.77,16.45H1.91V4.58H22.65Z" style="fill: antiquewhite;"/></g></g></svg>