<?xml version="1.0" encoding="utf-8"?>
<!-- Generator: Adobe Illustrator 19.0.0, SVG Export Plug-In . SVG Version: 6.00 Build 0)  -->
<svg version="1.1" id="Layer_1" xmlns="http://www.w3.org/2000/svg" xmlns:xlink="http://www.w3.org/1999/xlink" x="0px" y="0px"
	 viewBox="0 0 190 150" style="enable-background:new 0 0 190 150;" xml:space="preserve">
<style type="text/css">
	.st0{fill:#46B754;}
</style>
<g id="Layer_2_1_">
	<g id="Layer_1-2_1_">
		<path id="XMLID_15_" class="st0" d="M95.2,80.5h0.9c7.4,0.2,14.4-3,19.3-8.5c10.6-12.2,8.8-33.1,8.6-35.1
			c-0.8-15-7.6-22.1-13.3-25.5c-4.5-2.6-9.6-4-14.7-4h-0.6c-5.2,0-10.2,1.4-14.7,3.9C75,14.6,68,21.7,67.3,36.8
			c-0.2,2-1.9,22.9,8.6,35.1C80.8,77.5,87.8,80.6,95.2,80.5z M74.1,37.3v-0.2c1-20.7,15.2-22.9,21.3-22.9h0.4
			c7.6,0.2,20.5,3.4,21.3,22.9c0,0.1,0,0.2,0,0.2c0,0.2,2,19.8-6.9,30.2c-3.7,4.2-8.9,6.4-14.5,6.2h-0.3c-5.5,0.3-10.8-2-14.4-6.2
			C72.1,57.2,74.1,37.5,74.1,37.3z"/>
		<path id="XMLID_14_" class="st0" d="M150,131.3c0.7-0.4,1.2-1.1,1.4-1.7c1.1-4.2,1.4-8.5,1.3-12.8l0,0c0-0.2,0-0.5,0-0.7
			c-0.2-5.6-0.5-18.7-12.5-22.9H140c-8.2-2.3-15.9-5.9-23-10.8c-1.4-1.3-3.6-1.1-4.8,0.4c-0.2,0.2-0.3,0.4-0.4,0.6
			c-0.2,0.2-0.5,0.4-0.8,0.6L95.4,96.3L80.6,84.1c-0.1-0.3-0.2-0.5-0.4-0.8c-1.2-1.7-3.5-2.1-5.2-1c0,0,0,0-0.1,0
			c-7,4.8-14.8,8.2-23,10.5h-0.3c-12,4.3-12.4,17.5-12.6,23c0,0.2,0,0.5,0,0.7l0,0c-0.2,4.4,0.3,8.6,1.4,12.9
			c0.3,0.8,0.8,1.4,1.4,1.7c0.9,0.6,20.8,13.6,53.9,13.6S149.1,131.9,150,131.3z M145.2,116.2c0,0.3,0,0.5,0,0.7
			c0.1,2.9-0.2,5.8-0.6,8.7c-4.3,2.5-21.1,11.2-46.7,11.4v-31.6l13.4,8.3l10.6-19.8c5.1,2.6,10.4,4.8,15.9,6.3
			C144.3,102.6,145.1,109.7,145.2,116.2z M114.1,88.9l3.4,2l-7.9,14.3l-8.6-5.4L114.1,88.9z M76.6,88.9l13.3,11l-8.8,5.3l-9.1-12.8
			L76.6,88.9z M46.7,116.8c0-0.2,0-0.5,0-0.7c0.2-6.5,0.9-13.5,7.4-15.9c4.2-1.2,8.4-2.7,12.3-4.6l12.8,18l12.4-7.6v30.9
			c-15.5-0.3-30.6-4.2-44.4-11.4C46.8,122.7,46.6,119.7,46.7,116.8z"/>
		<ellipse id="XMLID_13_" class="st0" cx="86.8" cy="117" rx="2.3" ry="2.3"/>
		<ellipse id="XMLID_12_" class="st0" cx="86.8" cy="122.6" rx="2.3" ry="2.3"/>
		<ellipse id="XMLID_11_" class="st0" cx="86.8" cy="128.4" rx="2.3" ry="2.3"/>
		<path id="XMLID_10_" class="st0" d="M114.1,123.4l1,3l0.8,3.2l9.1-3c3.6-1.2,7-2.6,10.4-4.2l0,0c1.5-1.1,1.9-3.3,0.9-4.8
			c-0.3-0.5-0.8-0.9-1.2-1.2l-3.4,1.2L114.1,123.4z"/>
	</g>
</g>
</svg>
