<?xml version="1.0" encoding="utf-8"?>
<!-- Generator: Adobe Illustrator 19.0.0, SVG Export Plug-In . SVG Version: 6.00 Build 0)  -->
<svg version="1.1" id="Layer_1" xmlns="http://www.w3.org/2000/svg" xmlns:xlink="http://www.w3.org/1999/xlink" x="0px" y="0px"
	 viewBox="0 0 190 150" style="enable-background:new 0 0 190 150;" xml:space="preserve">
<style type="text/css">
	.st0{fill:#5980C0;}
</style>
<g id="Layer_2">
	<g id="Layer_1-2">
		<path id="XMLID_8_" class="st0" d="M95.5,63.5h0.7c5.6,0.1,11-2.3,14.6-6.6c7.9-9.3,6.7-25.2,6.5-26.9c-0.5-11.4-5.7-17-10-19.6
			c-3.4-2-7.2-3-11.1-3h-0.4c-3.9,0-7.7,1-11.1,3c-4.3,2.6-9.5,8.1-10.1,19.7c-0.2,1.8-1.4,17.6,6.5,26.9
			C84.6,61.1,89.9,63.5,95.5,63.5z M80,30.4L80,30.4L80,30.4L80,30.4c0.6-15.5,11.2-17.1,15.7-17.1H96c5.6,0.1,15.1,2.5,15.7,17.2
			c0,0.1,0,0.1,0,0.2c0,0.6,1.3,15.1-5.1,22.6c-2.7,3.1-6.6,4.8-10.7,4.6h-0.2c-4.1,0.2-8-1.5-10.6-4.6C78.5,45.3,79.9,30.6,80,30.4
			z"/>
		<path id="XMLID_7_" class="st0" d="M68.3,74.1c0.7,0.3,1.3,0.7,1.9,1.1l0,0l0,0c4.5-1.8,8.8-4.1,12.8-6.9l0,0
			c1.3-1,1.6-2.8,0.7-4.2c-0.9-1.3-2.6-1.7-3.9-0.8l-0.1,0.1c-4.6,3.2-9.6,5.7-14.9,7.5h-0.2V71C65.5,72.5,66.8,73.6,68.3,74.1z"/>
		<path id="XMLID_6_" class="st0" d="M111.3,63.4c-1.3-0.9-3-0.7-4,0.6l-0.1,0.1c-0.9,1.4-0.6,3.2,0.7,4.2c4.3,3,8.9,5.4,13.7,7.3
			l0,0l0,0c0.9-0.6,1.8-1.4,2.6-2.1c0.8-0.7,1.9-1.5,2.8-2.2l0.3-0.2H127C121.4,69.4,116.1,66.8,111.3,63.4L111.3,63.4z"/>
		<path id="XMLID_5_" class="st0" d="M144.5,88.4c-3.2,0.8-5.4,3.8-5.3,7.1v14c-0.1,3.3,2.1,6.2,5.2,7.1c3.7,0.9,7.4-1.4,8.2-5.1
			c0.1-0.6,0.2-1.2,0.2-1.7V95.3c0.1-3.8-2.8-7-6.6-7.1C145.6,88.2,145,88.3,144.5,88.4z"/>
		<path id="XMLID_4_" class="st0" d="M43.7,116.5c3.7,0.8,7.4-1.5,8.2-5.2c0.1-0.6,0.2-1.1,0.2-1.7V95.3c0.1-3.8-2.9-6.9-6.7-7
			c-0.6,0-1.1,0-1.7,0.2c-3.1,0.9-5.3,3.7-5.2,7v14C38.3,112.7,40.5,115.6,43.7,116.5z"/>
		<path id="XMLID_3_" class="st0" d="M59.4,95.3v14.2c0.2,7.7-6,14.1-13.7,14.2c0,0,0,0-0.1,0v3.1c0,1.9,1.5,3.5,3.3,3.5
			c17.2,0,31,5.7,43.9,14.2V85.7c-13.3-7.9-28.5-11.8-43.9-11.4c-1.9,0-3.4,1.6-3.4,3.5V81c7.7,0.1,13.9,6.5,13.7,14.2
			C59.4,95.2,59.4,95.3,59.4,95.3z"/>
		<path id="XMLID_2_" class="st0" d="M99.3,144.7c12.9-8.6,26.7-14.2,43.9-14.2c1.9,0,3.4-1.6,3.4-3.5l0,0v-3.1
			c-7.7-0.1-13.9-6.5-13.7-14.2l0,0V95.3c-0.1-7.7,6-14.1,13.7-14.2l0,0v-3.2c0-1.9-1.5-3.4-3.4-3.5c-15.4-0.4-30.6,3.5-43.9,11.4
			V144.7z"/>
	</g>
</g>
</svg>
